<mxfile host="app.diagrams.net" agent="Mozilla/5.0 (Windows NT 10.0; Win64; x64) AppleWebKit/537.36 (KHTML, like Gecko) Chrome/130.0.0.0 Safari/537.36" version="24.7.17">
  <diagram name="Page-1" id="YPKPpMM0ROmh5dz6Bpro">
    <mxGraphModel dx="2474" dy="2017" grid="1" gridSize="10" guides="1" tooltips="1" connect="1" arrows="1" fold="1" page="1" pageScale="1" pageWidth="827" pageHeight="1169" math="0" shadow="0">
      <root>
        <mxCell id="0" />
        <mxCell id="1" parent="0" />
        <mxCell id="i0-r0BhkWRjA8PmNq9u2-18" value="DATACENTER SDEA" style="rounded=1;whiteSpace=wrap;html=1;strokeColor=#07838f;fillColor=#dafdf5;arcSize=24;absoluteArcSize=1;imageWidth=64;imageHeight=64;strokeWidth=1.5;verticalAlign=top;fontSize=15;fontStyle=1" parent="1" vertex="1">
          <mxGeometry x="459" y="30" width="340" height="640" as="geometry" />
        </mxCell>
        <mxCell id="i0-r0BhkWRjA8PmNq9u2-19" value="" style="rounded=1;whiteSpace=wrap;html=1;strokeColor=#07838f;fillColor=#FFFFFF;arcSize=24;absoluteArcSize=1;imageWidth=64;imageHeight=64;strokeWidth=1.5;" parent="1" vertex="1">
          <mxGeometry x="459" y="70" width="340" height="600" as="geometry" />
        </mxCell>
        <mxCell id="i0-r0BhkWRjA8PmNq9u2-20" value="SnowFlake Dev/Qal" style="shape=image;verticalLabelPosition=bottom;verticalAlign=top;imageAspect=0;aspect=fixed;image=data:image/svg+xml,PHN2ZyB4bWxucz0iaHR0cDovL3d3dy53My5vcmcvMjAwMC9zdmciIGZpbGw9Im5vbmUiIHZpZXdCb3g9IjAgMCAyOCAyOCIgaGVpZ2h0PSIyOCIgd2lkdGg9IjI4Ij4mI3hhOzxnIGNsaXAtcGF0aD0idXJsKCNjbGlwMF84NzBfMjg0KSI+JiN4YTs8cGF0aCBmaWxsPSJ1cmwoI3BhaW50MF9saW5lYXJfODcwXzI4NCkiIGQ9Ik0yMy43ODkyIDEuNzIzM0MyNC45OTE0IDEuNzIzMyAyNS45OTQxIDIuMTI1NzkgMjYuNzk3MyAyLjkyNzI2QzI3LjU5ODggMy43Mjg3MyAyNy45OTk1IDQuNzI5NyAyNy45OTk1IDUuOTMzNjVWMjIuMDY2M0MyOC4wMDggMjIuNjIyNSAyNy45MDYgMjMuMTc0OCAyNy42OTkzIDIzLjY5MTJDMjcuNDkyNiAyNC4yMDc2IDI3LjE4NTQgMjQuNjc3OCAyNi43OTU2IDI1LjA3NDVDMjUuOTk0MSAyNS44NzU5IDI0Ljk5MzEgMjYuMjc2NyAyMy43ODkyIDI2LjI3NjdINC4yMTA4N0MzLjAwODY2IDI2LjI3NjcgMi4wMDU5NSAyNS44NzU5IDEuMjAyNzMgMjUuMDc0NUMwLjgxMzE2NCAyNC42Nzc2IDAuNTA2MjkyIDI0LjIwNzQgMC4yOTk5MTggMjMuNjkxQzAuMDkzNTQzNCAyMy4xNzQ2IC0wLjAwODIyNDU4IDIyLjYyMjQgMC4wMDA1MTkyMzEgMjIuMDY2M1Y1LjkzMzY1QzAuMDAwNTE5MjMxIDQuNzMxNDUgMC40MDMwMDUgMy43Mjg3MyAxLjIwNDQ4IDIuOTI1NTFDMi4wMDQyIDIuMTI1NzkgMy4wMDY5MSAxLjcyMzMgNC4yMDkxMiAxLjcyMzNIMjMuNzg5MlpNMi43ODk5MiA3LjMwMjFIMjUuMjEwMVY1LjkzMzY1QzI1LjIxMDEgNC45ODY5NCAyNC43Mzc2IDQuNTEyNyAyMy43ODkyIDQuNTEyN0g0LjIxMDg3QzMuODI4NiA0LjUwNTcyIDMuNDU3NjUgNC42NDI0OSAzLjE3MTQgNC44OTU5NEMyLjkxNzY2IDUuMTQ5NjggMi43ODk5MiA1LjQ5NjE3IDIuNzg5OTIgNS45MzM2NVY3LjMwMDM1VjcuMzAyMVpNMjUuMjEwMSAxMC4xNDU4SDIuNzg5OTJWMjIuMDY2M0MyLjc4OTkyIDIyLjQ2ODggMi45MTc2NiAyMi43OTYgMy4xNzE0IDIzLjA1MTVDMy40NTc5MSAyMy4zMDQ0IDMuODI4ODQgMjMuNDQwNSA0LjIxMDg3IDIzLjQzM0gyMy43ODkyQzI0LjczNTkgMjMuNDMzIDI1LjIxMDEgMjIuOTc4IDI1LjIxMDEgMjIuMDY2M1YxMC4xNDRWMTAuMTQ1OFoiLz4mI3hhOzwvZz4mI3hhOzxkZWZzPiYjeGE7PGxpbmVhckdyYWRpZW50IGdyYWRpZW50VW5pdHM9InVzZXJTcGFjZU9uVXNlIiB5Mj0iMjYuMjc2NyIgeDI9IjE0IiB5MT0iMS43MjMzIiB4MT0iMTQiIGlkPSJwYWludDBfbGluZWFyXzg3MF8yODQiPiYjeGE7PHN0b3Agc3RvcC1jb2xvcj0iIzVCNzM4QiIvPiYjeGE7PHN0b3Agc3RvcC1jb2xvcj0iIzIyMzU0OCIgb2Zmc2V0PSIxIi8+JiN4YTs8L2xpbmVhckdyYWRpZW50PiYjeGE7PGNsaXBQYXRoIGlkPSJjbGlwMF84NzBfMjg0Ij4mI3hhOzxyZWN0IGZpbGw9IndoaXRlIiBoZWlnaHQ9IjI4IiB3aWR0aD0iMjgiLz4mI3hhOzwvY2xpcFBhdGg+JiN4YTs8L2RlZnM+JiN4YTs8L3N2Zz4=" parent="1" vertex="1">
          <mxGeometry x="-151" y="227" width="70" height="70" as="geometry" />
        </mxCell>
        <mxCell id="i0-r0BhkWRjA8PmNq9u2-21" value="SnowFlake Prod" style="shape=image;verticalLabelPosition=bottom;verticalAlign=top;imageAspect=0;aspect=fixed;image=data:image/svg+xml,PHN2ZyB4bWxucz0iaHR0cDovL3d3dy53My5vcmcvMjAwMC9zdmciIGZpbGw9Im5vbmUiIHZpZXdCb3g9IjAgMCAyOCAyOCIgaGVpZ2h0PSIyOCIgd2lkdGg9IjI4Ij4mI3hhOzxnIGNsaXAtcGF0aD0idXJsKCNjbGlwMF84NzBfMjg0KSI+JiN4YTs8cGF0aCBmaWxsPSJ1cmwoI3BhaW50MF9saW5lYXJfODcwXzI4NCkiIGQ9Ik0yMy43ODkyIDEuNzIzM0MyNC45OTE0IDEuNzIzMyAyNS45OTQxIDIuMTI1NzkgMjYuNzk3MyAyLjkyNzI2QzI3LjU5ODggMy43Mjg3MyAyNy45OTk1IDQuNzI5NyAyNy45OTk1IDUuOTMzNjVWMjIuMDY2M0MyOC4wMDggMjIuNjIyNSAyNy45MDYgMjMuMTc0OCAyNy42OTkzIDIzLjY5MTJDMjcuNDkyNiAyNC4yMDc2IDI3LjE4NTQgMjQuNjc3OCAyNi43OTU2IDI1LjA3NDVDMjUuOTk0MSAyNS44NzU5IDI0Ljk5MzEgMjYuMjc2NyAyMy43ODkyIDI2LjI3NjdINC4yMTA4N0MzLjAwODY2IDI2LjI3NjcgMi4wMDU5NSAyNS44NzU5IDEuMjAyNzMgMjUuMDc0NUMwLjgxMzE2NCAyNC42Nzc2IDAuNTA2MjkyIDI0LjIwNzQgMC4yOTk5MTggMjMuNjkxQzAuMDkzNTQzNCAyMy4xNzQ2IC0wLjAwODIyNDU4IDIyLjYyMjQgMC4wMDA1MTkyMzEgMjIuMDY2M1Y1LjkzMzY1QzAuMDAwNTE5MjMxIDQuNzMxNDUgMC40MDMwMDUgMy43Mjg3MyAxLjIwNDQ4IDIuOTI1NTFDMi4wMDQyIDIuMTI1NzkgMy4wMDY5MSAxLjcyMzMgNC4yMDkxMiAxLjcyMzNIMjMuNzg5MlpNMi43ODk5MiA3LjMwMjFIMjUuMjEwMVY1LjkzMzY1QzI1LjIxMDEgNC45ODY5NCAyNC43Mzc2IDQuNTEyNyAyMy43ODkyIDQuNTEyN0g0LjIxMDg3QzMuODI4NiA0LjUwNTcyIDMuNDU3NjUgNC42NDI0OSAzLjE3MTQgNC44OTU5NEMyLjkxNzY2IDUuMTQ5NjggMi43ODk5MiA1LjQ5NjE3IDIuNzg5OTIgNS45MzM2NVY3LjMwMDM1VjcuMzAyMVpNMjUuMjEwMSAxMC4xNDU4SDIuNzg5OTJWMjIuMDY2M0MyLjc4OTkyIDIyLjQ2ODggMi45MTc2NiAyMi43OTYgMy4xNzE0IDIzLjA1MTVDMy40NTc5MSAyMy4zMDQ0IDMuODI4ODQgMjMuNDQwNSA0LjIxMDg3IDIzLjQzM0gyMy43ODkyQzI0LjczNTkgMjMuNDMzIDI1LjIxMDEgMjIuOTc4IDI1LjIxMDEgMjIuMDY2M1YxMC4xNDRWMTAuMTQ1OFoiLz4mI3hhOzwvZz4mI3hhOzxkZWZzPiYjeGE7PGxpbmVhckdyYWRpZW50IGdyYWRpZW50VW5pdHM9InVzZXJTcGFjZU9uVXNlIiB5Mj0iMjYuMjc2NyIgeDI9IjE0IiB5MT0iMS43MjMzIiB4MT0iMTQiIGlkPSJwYWludDBfbGluZWFyXzg3MF8yODQiPiYjeGE7PHN0b3Agc3RvcC1jb2xvcj0iIzVCNzM4QiIvPiYjeGE7PHN0b3Agc3RvcC1jb2xvcj0iIzIyMzU0OCIgb2Zmc2V0PSIxIi8+JiN4YTs8L2xpbmVhckdyYWRpZW50PiYjeGE7PGNsaXBQYXRoIGlkPSJjbGlwMF84NzBfMjg0Ij4mI3hhOzxyZWN0IGZpbGw9IndoaXRlIiBoZWlnaHQ9IjI4IiB3aWR0aD0iMjgiLz4mI3hhOzwvY2xpcFBhdGg+JiN4YTs8L2RlZnM+JiN4YTs8L3N2Zz4=" parent="1" vertex="1">
          <mxGeometry x="-151" y="469" width="70" height="70" as="geometry" />
        </mxCell>
        <mxCell id="i0-r0BhkWRjA8PmNq9u2-2" value="" style="group;arcSize=24;" parent="1" vertex="1" connectable="0">
          <mxGeometry x="9" y="30" width="583.86" height="640" as="geometry" />
        </mxCell>
        <mxCell id="i0-r0BhkWRjA8PmNq9u2-3" value="&lt;p style=&quot;line-height: 100%; font-size: 15px;&quot;&gt;&lt;/p&gt;&lt;h1 style=&quot;font-size: 15px;&quot;&gt;&lt;b style=&quot;font-size: 15px;&quot;&gt;GLOBAL ACCOUNT&lt;/b&gt;&lt;/h1&gt;&lt;p style=&quot;font-size: 15px;&quot;&gt;&lt;/p&gt;" style="rounded=1;whiteSpace=wrap;html=1;strokeColor=#0070F2;fillColor=#EBF8FF;arcSize=24;absoluteArcSize=1;imageWidth=64;imageHeight=64;strokeWidth=1.5;verticalAlign=top;fontSize=15;" parent="i0-r0BhkWRjA8PmNq9u2-2" vertex="1">
          <mxGeometry width="340" height="640" as="geometry" />
        </mxCell>
        <mxCell id="i0-r0BhkWRjA8PmNq9u2-4" value="" style="shape=image;verticalLabelPosition=bottom;labelBackgroundColor=default;verticalAlign=top;aspect=fixed;imageAspect=0;image=data:image/svg+xml,PHN2ZyB4bWxuczp4bGluaz0iaHR0cDovL3d3dy53My5vcmcvMTk5OS94bGluayIgeG1sbnM9Imh0dHA6Ly93d3cudzMub3JnLzIwMDAvc3ZnIiB2aWV3Qm94PSIwIDAgMTQ0Ljc0NyAzOS44MzIiIGlkPSJhIj48ZGVmcz48bGluZWFyR3JhZGllbnQgZ3JhZGllbnRVbml0cz0idXNlclNwYWNlT25Vc2UiIHkyPSIzOS44MzIiIHgyPSI0MC4yNTgiIHkxPSIwIiB4MT0iNDAuMjU4IiBpZD0iYiI+PHN0b3Agc3RvcC1jb2xvcj0iIzAwYjhmMSIgb2Zmc2V0PSIwIi8+PHN0b3Agc3RvcC1jb2xvcj0iIzAwYjVlZiIgb2Zmc2V0PSIuMDE2Ii8+PHN0b3Agc3RvcC1jb2xvcj0iIzBkOTBkOCIgb2Zmc2V0PSIuMzA4Ii8+PHN0b3Agc3RvcC1jb2xvcj0iIzE2NzVjOCIgb2Zmc2V0PSIuNTc4Ii8+PHN0b3Agc3RvcC1jb2xvcj0iIzFjNjRiZSIgb2Zmc2V0PSIuODE3Ii8+PHN0b3Agc3RvcC1jb2xvcj0iIzFlNWZiYiIgb2Zmc2V0PSIxIi8+PC9saW5lYXJHcmFkaWVudD48L2RlZnM+PHBvbHlsaW5lIGZpbGwtcnVsZT0iZXZlbm9kZCIgZmlsbD0idXJsKCNiKSIgcG9pbnRzPSIwIDM5LjgzMiA0MC42OTIgMzkuODMyIDgwLjUxNyAwIDAgMCAwIDM5LjgzMiIvPjxwYXRoIGZpbGwtcnVsZT0iZXZlbm9kZCIgZmlsbD0iI2ZmZiIgZD0ibTQ3Ljc4Miw3LjQ4OWwtNy45MjUtLjAwNXYxOC44NDVsLTYuOTI0LTE4Ljg0NWgtNi44NjVsLTUuOTEyLDE1Ljc1OWMtLjYzLTMuOTczLTQuNzQtNS4zNDUtNy45NzQtNi4zNzQtMi4xMzUtLjY4Ni00LjQwMS0xLjY5NC00LjM4LTIuODA5LjAxNy0uOTE1LDEuMjE1LTEuNzY1LDMuNTg5LTEuNjM3LDEuNTk1LjA4NCwzLjAwMS4yMTMsNS44LDEuNTYzbDIuNzUzLTQuNzk1Yy0yLjU1NS0xLjMtNi4wODYtMi4xMjEtOC45NzgtMi4xMjRoLS4wMTdjLTMuMzc0LDAtNi4xODUsMS4wOTMtNy45MjgsMi44OTQtMS4yMTQsMS4yNTgtMS44NjksMi44NTYtMS44OTYsNC42MjMtLjA0NCwyLjQzMi44NDgsNC4xNTcsMi43MjEsNS41MzMsMS41ODMsMS4xNiwzLjYwNiwxLjkxMiw1LjM5LDIuNDY1LDIuMjAxLjY4MSwzLjk5NiwxLjI3NCwzLjk3NSwyLjUzOS0uMDE2LjQ1OS0uMTkxLjg4OC0uNTIxLDEuMjM2LS41NDguNTY2LTEuMzkxLjc3OS0yLjU1NS43OTktMi4yNDQuMDQ4LTMuOTEtLjMwMy02LjU2Mi0xLjg3bC0yLjQ0OCw0Ljg2MWMyLjY0NCwxLjUwNiw1Ljc3NiwyLjM4OCw4Ljk3MiwyLjM4OGwuNDExLS4wMDZjMi43ODItLjA1LDUuMDI2LS44NDIsNi44Mi0yLjI4Ni4xMDMtLjA4MS4xOTYtLjE2Ni4yOTEtLjI1bC0uNzk1LDIuMTIzaDcuMmwxLjIwOC0zLjY3NGMxLjI2NS40MzMsMi43MDQuNjcxLDQuMjMyLjY3MSwxLjQ4NywwLDIuODg5LS4yMjksNC4xMzEtLjYzNWwxLjE2NCwzLjYzN2gxMS43NDJ2LTcuNjA3aDIuNTYxYzYuMTg4LDAsOS44NTEtMy4xNTQsOS44NTEtOC40MzYsMC01Ljg4NS0zLjU1Ny04LjU4NS0xMS4xMzItOC41ODVabS0xOC4zMTcsMTYuMTI0Yy0uOTI1LDAtMS43OTItLjE2LTIuNTM5LS40NDNsMi41MTItNy45MjZoLjA0OGwyLjQ2OCw3Ljk0OGMtLjc0Mi4yNjMtMS41ODkuNDIxLTIuNDg4LjQyMVptMTguNzgzLTQuNTUzaC0xLjc0NnYtNi4zODZoMS43NDZjMi4zMjgsMCw0LjE4NS43NzMsNC4xODUsMy4xNTEsMCwyLjQ2MS0xLjg1NywzLjIzNi00LjE4NSwzLjIzNiIvPjxwYXRoIGZpbGw9IiMwMDJhODYiIGQ9Im04MC4yMTcsNy40MDFoMTAuMDYzYzUuNTk1LDAsOC42NzQsMS45MTcsOC42NzQsNi4xNTgsMCwyLjkwMy0xLjUxMyw1LjAxNC00LjMxMSw1LjcsMy4yOS40NTgsNS4yNzgsMi41ODYsNS4yNzgsNS44OTQsMCw1LjAxNC00LjA2NCw3LjAzNy05LjE4NCw3LjAzN2gtMTAuNTIxVjcuNDAxWm0xMy45NjksNi44MjZjMC0yLjE2NC0xLjQ5Ni0yLjk3My00LjI0LTIuOTczaC01LjA0OXY2LjI5OGg0Ljg5MWMzLjIwMiwwLDQuMzk4LTEuMTYxLDQuMzk4LTMuMzI1Wm0xLjAyMSwxMC41MjFjMC0yLjM1Ny0xLjc3Ny0zLjQ2Ni00LjgzOS0zLjQ2NmgtNS40NzF2Ny4wNTVoNS41MDZjMi44MTUsMCw0LjgwNC0uNzc0LDQuODA0LTMuNTg5WiIvPjxwYXRoIGZpbGw9IiMwMDJhODYiIGQ9Im0xMDkuMDUxLDExLjVoLTcuNTgzdi00LjA5OWgxOS44NDZ2NC4wOTloLTcuNTY1djIwLjY5aC00LjY5N1YxMS41WiIvPjxwYXRoIGZpbGw9IiMwMDJhODYiIGQ9Im0xMjUuMTQ4LDcuNDAxaDEwLjUwNGM2LjE5MiwwLDkuMDk2LDMuMTg1LDkuMDk2LDcuODk5LDAsNC4zOTgtMi44MzMsOC4xNDYtOC44NSw4LjE0NmgtNi4wN3Y4Ljc0NGgtNC42OFY3LjQwMVptMTQuOTAyLDcuOTUyYzAtMi41NTEtMS42ODktMy45MjMtNC45NDQtMy45MjNoLTUuMjc4djguMDRoNS40MTljMy4yNzIsMCw0LjgwNC0xLjU4Myw0LjgwNC00LjExN1oiLz48L3N2Zz4=;strokeWidth=1.5;" parent="i0-r0BhkWRjA8PmNq9u2-2" vertex="1">
          <mxGeometry x="16.717504332755635" y="18.823529411764707" width="70.89897033336732" height="19.555265572433477" as="geometry" />
        </mxCell>
        <mxCell id="i0-r0BhkWRjA8PmNq9u2-13" value="" style="rounded=1;whiteSpace=wrap;html=1;strokeColor=#0070F2;strokeWidth=1.5;arcSize=24;fillColor=#FFFFFF;perimeterSpacing=0;absoluteArcSize=1;" parent="i0-r0BhkWRjA8PmNq9u2-2" vertex="1">
          <mxGeometry x="16.72" y="372.71" width="203.28" height="203.17" as="geometry" />
        </mxCell>
        <mxCell id="i0-r0BhkWRjA8PmNq9u2-14" value="&lt;font face=&quot;arial&quot; style=&quot;font-size: 16px;&quot;&gt;&lt;b style=&quot;font-size: 16px;&quot;&gt;SubAccount&lt;/b&gt;&lt;/font&gt;&lt;div&gt;&lt;font face=&quot;arial&quot; style=&quot;font-size: 16px;&quot;&gt;&lt;b style=&quot;font-size: 16px;&quot;&gt;Integration PRD&lt;/b&gt;&lt;/font&gt;&lt;/div&gt;" style="text;html=1;align=left;verticalAlign=middle;resizable=0;points=[];autosize=1;strokeColor=none;fillColor=none;fontSize=12;fontColor=#1d2d3e;fontFamily=Helvetica;" parent="i0-r0BhkWRjA8PmNq9u2-2" vertex="1">
          <mxGeometry x="27.036395147313687" y="372.1270588235294" width="140" height="50" as="geometry" />
        </mxCell>
        <mxCell id="i0-r0BhkWRjA8PmNq9u2-34" value="&lt;font face=&quot;arial&quot; style=&quot;color: rgb(29, 45, 62); text-wrap-mode: nowrap; font-size: 16px;&quot;&gt;&lt;b&gt;SubAccount&lt;/b&gt;&lt;/font&gt;&lt;div style=&quot;color: rgb(29, 45, 62); text-wrap-mode: nowrap;&quot;&gt;&lt;font face=&quot;arial&quot; style=&quot;font-size: 16px;&quot;&gt;&lt;b&gt;Integration DEV/QAL&lt;/b&gt;&lt;/font&gt;&lt;/div&gt;" style="rounded=1;whiteSpace=wrap;html=1;strokeColor=#0070F2;strokeWidth=1.5;arcSize=24;fillColor=#FFFFFF;perimeterSpacing=0;absoluteArcSize=1;verticalAlign=top;align=left;" parent="i0-r0BhkWRjA8PmNq9u2-2" vertex="1">
          <mxGeometry x="18.36" y="130" width="201.64" height="203.17" as="geometry" />
        </mxCell>
        <mxCell id="i0-r0BhkWRjA8PmNq9u2-15" value="SAP Integration Suite" style="shape=image;verticalLabelPosition=bottom;verticalAlign=top;aspect=fixed;imageAspect=0;image=data:image/svg+xml,PHN2ZyB4bWxucz0iaHR0cDovL3d3dy53My5vcmcvMjAwMC9zdmciIGZpbGw9Im5vbmUiIHZpZXdCb3g9IjAgMCAxNiAxNiIgaGVpZ2h0PSIxNiIgd2lkdGg9IjE2Ij4mI3hhOzxjaXJjbGUgc3Ryb2tlLXdpZHRoPSIwLjI4NTcwOCIgc3Ryb2tlPSIjRDVEQUREIiBmaWxsPSJ1cmwoI3BhaW50MF9saW5lYXJfMzUxNF80MDI2OCkiIHI9IjcuODU2OTYiIGN5PSI3Ljk5NzYyIiBjeD0iNy45OTg4NCIvPiYjeGE7PGcgY2xpcC1wYXRoPSJ1cmwoI2NsaXAwXzM1MTRfNDAyNjgpIj4mI3hhOzxwYXRoIGZpbGw9InVybCgjcGFpbnQxX2xpbmVhcl8zNTE0XzQwMjY4KSIgZD0iTTcuOTQ5NTggMi44OTc3MUM2LjQyNzE1IDIuODk3NzEgNS4yNzc5NSAzLjk2MDAxIDQuOTEzNDkgNS4yMDYwOEM0LjUxMDcgNS4yOTI5NiA0LjE0MjEzIDUuNDc0NDUgMy44MzI3NyA1Ljc0NTc3QzMuMjc3NDcgNi4yMzI3OSAyLjk5OTAyIDYuOTM0MTMgMi45OTkwMiA3LjY1MzAxQzIuOTk5MDIgOC4zMDY1NCAzLjIwOTcgOC45NjQzNCAzLjcxNDYyIDkuNDU4MDNDNC4xMSA5Ljg0NDYzIDQuNjE1OTMgMTAuMDYyNSA1LjE2OTczIDEwLjEzODZWMTAuMDI0MkM1LjE2OTczIDkuNzIwMzUgNS4yODA2NCA5LjQ0MjM4IDUuNDY0MiA5LjIyODU5QzQuOTYzODYgOS4wNzU2MSA0LjU5OTk2IDguNjEwMTkgNC41OTk5NiA4LjA1OTc3VjcuNzIwNzdDNC41OTk5NiA3LjA0NTg1IDUuMTQ3MDkgNi40OTg3MyA1LjgyMiA2LjQ5ODczSDYuMTU5MTdDNi4xNzEwNyA2LjQ5ODczIDYuMTgyOTMgNi40OTg5IDYuMTk0NzUgNi40OTkyNEM2LjE3NTk3IDYuNDE0MTEgNi4xNjYwOCA2LjMyNTY0IDYuMTY2MDggNi4yMzQ4NlY1Ljg5NTg3QzYuMTY2MDggNS4yMjA5NSA2LjcxMzIgNC42NzM4MyA3LjM4ODExIDQuNjczODNINy43MjUyOUM4LjQwMDIgNC42NzM4MyA4Ljk0NzMzIDUuMjIwOTUgOC45NDczMyA1Ljg5NTg3VjYuMTc4NzdDOS4xNzE0OCA1LjkxNTIxIDkuNTA1NTMgNS43NDgwMSA5Ljg3ODYzIDUuNzQ4MDFIMTAuMjE1OEMxMC44OTA3IDUuNzQ4MDEgMTEuNDM3OCA2LjI5NTEzIDExLjQzNzggNi45NzAwNFY3LjMwOTA0QzExLjQzNzggNy42NjM0OCAxMS4yODY5IDcuOTgyNjggMTEuMDQ1OSA4LjIwNTg5QzExLjIzMTIgOC40MjAxMyAxMS4zNDMzIDguNjk5NDUgMTEuMzQzMyA5LjAwNDk1VjkuNDU4QzExLjM0MzMgOS42MjU1NiAxMS4zMDk2IDkuNzg1MjQgMTEuMjQ4NiA5LjkzMDYzQzEyLjIzNDEgOS41MTg2OSAxMi45OTkgOC41OTgwOSAxMi45OTkgNy4yODcyQzEyLjk5OSA1LjgyNDczIDExLjk3ODYgNC42OTQ1NyAxMC43MTMxIDQuNDQzNDlDMTAuMTQzOCAzLjUxNDMgOS4xODIzIDIuODk3NzEgNy45NDk1OCAyLjg5NzcxWiIvPiYjeGE7PHBhdGggZmlsbD0idXJsKCNwYWludDJfcmFkaWFsXzM1MTRfNDAyNjgpIiBkPSJNNy43MjUzMSA1LjE3MTg4QzguMTI0MDggNS4xNzE4OCA4LjQ0NzM0IDUuNDk1MTQgOC40NDczNCA1Ljg5MzkxVjYuMjMyOTFDOC40NDczNCA2LjQ1NjIxIDguMzQ1OTggNi42NTU4NCA4LjE4Njc1IDYuNzg4MjhMOC4zNTM4NCA3LjQ1MDkzSDguMzc3OTRDOC40NDc3IDcuNDUwOTMgOC41MTMzOSA3LjQ2ODM3IDguNTcwODggNy40OTkxM0w5LjE1NjYzIDcuMjAxOTVWNi45NjgxM0M5LjE1NjYzIDYuNTY5MzYgOS40Nzk5IDYuMjQ2MDkgOS44Nzg2NyA2LjI0NjA5SDEwLjIxNThDMTAuNjE0NiA2LjI0NjA5IDEwLjkzNzkgNi41NjkzNiAxMC45Mzc5IDYuOTY4MTNWNy4zMDcxM0MxMC45Mzc5IDcuNzA1OSAxMC42MTQ2IDguMDI5MTcgMTAuMjE1OCA4LjAyOTE3SDkuODc4NjdDOS42NzE4MyA4LjAyOTE3IDkuNDg1MyA3Ljk0MjE5IDkuMzUzNjYgNy44MDI4Mkw4Ljc4NzQ4IDguMDkwMDhWOC4xNjE2Nkw4Ljc4OTM3IDguMTU4NzhMOS4yMTg0MyA4LjQzOTlDOS4zNDIxNSA4LjM0MDQ5IDkuNDk5MzEgOC4yODEwMSA5LjY3MDM2IDguMjgxMDFIMTAuMTIxNEMxMC41MjAyIDguMjgxMDEgMTAuODQzNCA4LjYwNDI3IDEwLjg0MzQgOS4wMDMwNFY5LjQ1NjA5QzEwLjg0MzQgOS44NTQ4NiAxMC41MjAyIDEwLjE3ODEgMTAuMTIxNCAxMC4xNzgxSDkuNjcwMzZDOS4yNzE1OSAxMC4xNzgxIDguOTQ4MzMgOS44NTQ4NiA4Ljk0ODMzIDkuNDU2MDlWOS4wMTAxM0w4LjU2MTUzIDguNzU2N0M4LjUwNjMxIDguNzg0NDQgOC40NDM5NSA4LjgwMDA2IDguMzc3OTQgOC44MDAwNkg4LjA0NDM1TDcuMzc0ODYgOS42OTkwNEM3LjQyMzY1IDkuNzk2MyA3LjQ1MTExIDkuOTA2MTEgNy40NTExMSAxMC4wMjIzVjEwLjM2MTNDNy40NTExMSAxMC43NjAxIDcuMTI3ODQgMTEuMDgzNCA2LjcyOTA3IDExLjA4MzRINi4zOTE5QzUuOTkzMTMgMTEuMDgzNCA1LjY2OTg2IDEwLjc2MDEgNS42Njk4NiAxMC4zNjEzTDUuNjY5ODYgMTAuMDIyM0M1LjY2OTg2IDkuNjIzNTYgNS45OTMxMyA5LjMwMDI5IDYuMzkxOSA5LjMwMDI5SDYuNzI5MDdDNi43ODEwNyA5LjMwMDI5IDYuODMxNzkgOS4zMDU3OSA2Ljg4MDY3IDkuMzE2MjNMNy40NjM4NiA4LjUzMzEzQzcuNDQ3MzYgOC40ODg3MiA3LjQzODM1IDguNDQwNjcgNy40MzgzNSA4LjM5MDUyVjguMjg0NjZMNi44NDUwMSA4LjI4NDY2QzYuNzQ5OTEgOC41NzIzMyA2LjQ3ODg1IDguNzc5OSA2LjE1OTMxIDguNzc5OUg1LjgyMjE0QzUuNDIzMzcgOC43Nzk5IDUuMTAwMSA4LjQ1NjYzIDUuMTAwMSA4LjA1Nzg2TDUuMTAwMSA3LjcxODg2QzUuMTAwMSA3LjMyMDA5IDUuNDIzMzcgNi45OTY4MyA1LjgyMjE0IDYuOTk2ODNINi4xNTkzMUM2LjUzODE1IDYuOTk2ODMgNi44NDg4NCA3LjI4ODU4IDYuODc4OTYgNy42NTk2Nkw3LjQ5MDg3IDcuNjU5NjZDNy41Mzk3NiA3LjU3MjkzIDcuNjE5MzMgNy41MDU4MSA3LjcxNDg1IDcuNDczMDJMNy41ODQyMSA2Ljk1NDk1SDcuMzg4MTNDNi45ODkzNiA2Ljk1NDk1IDYuNjY2MDkgNi42MzE2OCA2LjY2NjA5IDYuMjMyOTFWNS44OTM5MUM2LjY2NjA5IDUuNDk1MTQgNi45ODkzNiA1LjE3MTg4IDcuMzg4MTMgNS4xNzE4OEg3LjcyNTMxWk03LjgyMjM0IDUuODkzOTFDNy44MjIzNCA1Ljg0MDMyIDcuNzc4OSA1Ljc5Njg4IDcuNzI1MzEgNS43OTY4OEw3LjM4ODEzIDUuNzk2ODdDNy4zMzQ1NCA1Ljc5Njg3IDcuMjkxMDkgNS44NDAzMiA3LjI5MTA5IDUuODkzOTFWNi4yMzI5MUM3LjI5MTA5IDYuMjg2NSA3LjMzNDU0IDYuMzI5OTUgNy4zODgxMyA2LjMyOTk1SDcuNzI1MzFDNy43Nzg5IDYuMzI5OTUgNy44MjIzNCA2LjI4NjUgNy44MjIzNCA2LjIzMjkxVjUuODkzOTFaTTEwLjMxMjkgNi45NjgxM0MxMC4zMTI5IDYuOTE0NTQgMTAuMjY5NCA2Ljg3MTA5IDEwLjIxNTggNi44NzEwOUg5Ljg3ODY3QzkuODI1MDggNi44NzEwOSA5Ljc4MTYzIDYuOTE0NTQgOS43ODE2MyA2Ljk2ODEzVjcuMzA3MTNDOS43ODE2MyA3LjM2MDcyIDkuODI1MDggNy40MDQxNyA5Ljg3ODY3IDcuNDA0MTdIMTAuMjE1OEMxMC4yNjk0IDcuNDA0MTcgMTAuMzEyOSA3LjM2MDcyIDEwLjMxMjkgNy4zMDcxM1Y2Ljk2ODEzWk0xMC4yMTg0IDkuMDAzMDRDMTAuMjE4NCA4Ljk0OTQ1IDEwLjE3NSA4LjkwNjAxIDEwLjEyMTQgOC45MDYwMUg5LjY3MDM2QzkuNjE2NzcgOC45MDYwMSA5LjU3MzMzIDguOTQ5NDUgOS41NzMzMyA5LjAwMzA0VjkuNDU2MDlDOS41NzMzMyA5LjUwOTY4IDkuNjE2NzcgOS41NTMxMyA5LjY3MDM2IDkuNTUzMTNIMTAuMTIxNEMxMC4xNzUgOS41NTMxMyAxMC4yMTg0IDkuNTA5NjggMTAuMjE4NCA5LjQ1NjA5VjkuMDAzMDRaTTYuMTU5MzEgNy42MjE4M0M2LjIxMjkgNy42MjE4MyA2LjI1NjM1IDcuNjY1MjcgNi4yNTYzNSA3LjcxODg2VjguMDU3ODZDNi4yNTYzNSA4LjExMTQ2IDYuMjEyOSA4LjE1NDkgNi4xNTkzMSA4LjE1NDlINS44MjIxNEM1Ljc2ODU0IDguMTU0OSA1LjcyNTEgOC4xMTE0NiA1LjcyNTEgOC4wNTc4NlY3LjcxODg2QzUuNzI1MSA3LjY2NTI3IDUuNzY4NTQgNy42MjE4MyA1LjgyMjE0IDcuNjIxODNINi4xNTkzMVpNNi44MjYxMSAxMC4wMjIzQzYuODI2MTEgOS45Njg3NCA2Ljc4MjY3IDkuOTI1MjkgNi43MjkwNyA5LjkyNTI5SDYuMzkxOUM2LjMzODMxIDkuOTI1MjkgNi4yOTQ4NiA5Ljk2ODc0IDYuMjk0ODYgMTAuMDIyM1YxMC4zNjEzQzYuMjk0ODYgMTAuNDE0OSA2LjMzODMxIDEwLjQ1ODQgNi4zOTE5IDEwLjQ1ODRINi43MjkwN0M2Ljc4MjY3IDEwLjQ1ODQgNi44MjYxMSAxMC40MTQ5IDYuODI2MTEgMTAuMzYxM1YxMC4wMjIzWiIgY2xpcC1ydWxlPSJldmVub2RkIiBmaWxsLXJ1bGU9ImV2ZW5vZGQiLz4mI3hhOzxwYXRoIGZpbGw9InVybCgjcGFpbnQzX3JhZGlhbF8zNTE0XzQwMjY4KSIgZD0iTTQuMjU4NzkgMTAuNTIyN0M0LjUwMDQxIDEwLjUyMjcgNC42OTYyOSAxMC43MTg2IDQuNjk2MjkgMTAuOTYwMlYxMS40NjAyQzQuNjk2MjkgMTEuNzcwOSA0Ljk0ODEzIDEyLjAyMjcgNS4yNTg3OSAxMi4wMjI3SDEwLjc1ODhDMTEuMDY5NCAxMi4wMjI3IDExLjMyMTMgMTEuNzcwOSAxMS4zMjEzIDExLjQ2MDJWMTAuOTYwMkMxMS4zMjEzIDEwLjcxODYgMTEuNTE3MiAxMC41MjI3IDExLjc1ODggMTAuNTIyN0MxMi4wMDA0IDEwLjUyMjcgMTIuMTk2MyAxMC43MTg2IDEyLjE5NjMgMTAuOTYwMlYxMS40NjAyQzEyLjE5NjMgMTIuMjU0MSAxMS41NTI3IDEyLjg5NzcgMTAuNzU4OCAxMi44OTc3SDUuMjU4NzlDNC40NjQ4OCAxMi44OTc3IDMuODIxMjkgMTIuMjU0MSAzLjgyMTI5IDExLjQ2MDJWMTAuOTYwMkMzLjgyMTI5IDEwLjcxODYgNC4wMTcxNiAxMC41MjI3IDQuMjU4NzkgMTAuNTIyN1pNMTAuNTIzNCAxMS42Mzc5QzEwLjczMDUgMTEuNjM3OSAxMC44OTg0IDExLjQ3IDEwLjg5ODQgMTEuMjYyOUMxMC44OTg0IDExLjA1NTggMTAuNzMwNSAxMC44ODc5IDEwLjUyMzQgMTAuODg3OUMxMC4zMTYzIDEwLjg4NzkgMTAuMTQ4NCAxMS4wNTU4IDEwLjE0ODQgMTEuMjYyOUMxMC4xNDg0IDExLjQ3IDEwLjMxNjMgMTEuNjM3OSAxMC41MjM0IDExLjYzNzlaTTkuNzQ5NzQgMTEuMjYyOUM5Ljc0OTc0IDExLjQ3IDkuNTgxODUgMTEuNjM3OSA5LjM3NDc0IDExLjYzNzlDOS4xNjc2MyAxMS42Mzc5IDguOTk5NzQgMTEuNDcgOC45OTk3NCAxMS4yNjI5QzguOTk5NzQgMTEuMDU1OCA5LjE2NzYzIDEwLjg4NzkgOS4zNzQ3NCAxMC44ODc5QzkuNTgxODUgMTAuODg3OSA5Ljc0OTc0IDExLjA1NTggOS43NDk3NCAxMS4yNjI5WiIgY2xpcC1ydWxlPSJldmVub2RkIiBmaWxsLXJ1bGU9ImV2ZW5vZGQiLz4mI3hhOzwvZz4mI3hhOzxkZWZzPiYjeGE7PGxpbmVhckdyYWRpZW50IGdyYWRpZW50VW5pdHM9InVzZXJTcGFjZU9uVXNlIiB5Mj0iMTQuNzQ1NiIgeDI9IjEzLjY4NjkiIHkxPSIyLjI2ODciIHgxPSIxLjQ0OTk1IiBpZD0icGFpbnQwX2xpbmVhcl8zNTE0XzQwMjY4Ij4mI3hhOzxzdG9wIHN0b3AtY29sb3I9IndoaXRlIi8+JiN4YTs8c3RvcCBzdG9wLWNvbG9yPSIjRUFFQ0VFIiBvZmZzZXQ9IjEiLz4mI3hhOzwvbGluZWFyR3JhZGllbnQ+JiN4YTs8bGluZWFyR3JhZGllbnQgZ3JhZGllbnRVbml0cz0idXNlclNwYWNlT25Vc2UiIHkyPSIxMC42MzQ0IiB4Mj0iOS4zMTQ0MSIgeTE9IjMuOTgwNTQiIHgxPSI0LjQ5ODA3IiBpZD0icGFpbnQxX2xpbmVhcl8zNTE0XzQwMjY4Ij4mI3hhOzxzdG9wIHN0b3AtY29sb3I9IiMwMTk1RkYiLz4mI3hhOzxzdG9wIHN0b3AtY29sb3I9IiMxMTQ3RTkiIG9mZnNldD0iMC45OTEwMjgiLz4mI3hhOzwvbGluZWFyR3JhZGllbnQ+JiN4YTs8cmFkaWFsR3JhZGllbnQgZ3JhZGllbnRUcmFuc2Zvcm09InRyYW5zbGF0ZSg2LjAwNDA3IDYuMDYxMTcpIHJvdGF0ZSg0NS4zNTk0KSBzY2FsZSg1Ljc4NzI0IDUuMjczMjgpIiBncmFkaWVudFVuaXRzPSJ1c2VyU3BhY2VPblVzZSIgcj0iMSIgY3k9IjAiIGN4PSIwIiBpZD0icGFpbnQyX3JhZGlhbF8zNTE0XzQwMjY4Ij4mI3hhOzxzdG9wIHN0b3AtY29sb3I9IiMxMzQ4RkYiLz4mI3hhOzxzdG9wIHN0b3AtY29sb3I9IiMwNjIzOEQiIG9mZnNldD0iMSIvPiYjeGE7PC9yYWRpYWxHcmFkaWVudD4mI3hhOzxyYWRpYWxHcmFkaWVudCBncmFkaWVudFRyYW5zZm9ybT0idHJhbnNsYXRlKDUuMTE4MTQgMTAuODgpIHJvdGF0ZSgxNS44MzI0KSBzY2FsZSg2LjA2Mzg0IDIuOTAwNzMpIiBncmFkaWVudFVuaXRzPSJ1c2VyU3BhY2VPblVzZSIgcj0iMSIgY3k9IjAiIGN4PSIwIiBpZD0icGFpbnQzX3JhZGlhbF8zNTE0XzQwMjY4Ij4mI3hhOzxzdG9wIHN0b3AtY29sb3I9IiMxMzQ4RkYiLz4mI3hhOzxzdG9wIHN0b3AtY29sb3I9IiMwNjIzOEQiIG9mZnNldD0iMSIvPiYjeGE7PC9yYWRpYWxHcmFkaWVudD4mI3hhOzxjbGlwUGF0aCBpZD0iY2xpcDBfMzUxNF80MDI2OCI+JiN4YTs8cmVjdCB0cmFuc2Zvcm09InRyYW5zbGF0ZSgyLjk5OTAyIDIuODk3NzEpIiBmaWxsPSJ3aGl0ZSIgaGVpZ2h0PSIxMCIgd2lkdGg9IjEwIi8+JiN4YTs8L2NsaXBQYXRoPiYjeGE7PC9kZWZzPiYjeGE7PC9zdmc+;points=[[0,0,0,0,0],[0,0.25,0,0,0],[0,0.5,0,0,0],[0,0.75,0,0,0],[0.25,0,0,0,0],[0.5,0,0,0,0],[0.75,0,0,0,0],[1,0,0,0,0],[1,0.25,0,0,0],[1,0.5,0,0,0],[1,0.75,0,0,0]];container=0;fontStyle=0;fontSize=12;fontColor=#1D2D3E;" parent="i0-r0BhkWRjA8PmNq9u2-2" vertex="1">
          <mxGeometry x="80.99999999999999" y="446.9364705882353" width="54.71058823529412" height="54.71058823529412" as="geometry" />
        </mxCell>
        <mxCell id="i0-r0BhkWRjA8PmNq9u2-11" value="SAP Integration Suite" style="shape=image;verticalLabelPosition=bottom;verticalAlign=top;aspect=fixed;imageAspect=0;image=data:image/svg+xml,PHN2ZyB4bWxucz0iaHR0cDovL3d3dy53My5vcmcvMjAwMC9zdmciIGZpbGw9Im5vbmUiIHZpZXdCb3g9IjAgMCAxNiAxNiIgaGVpZ2h0PSIxNiIgd2lkdGg9IjE2Ij4mI3hhOzxjaXJjbGUgc3Ryb2tlLXdpZHRoPSIwLjI4NTcwOCIgc3Ryb2tlPSIjRDVEQUREIiBmaWxsPSJ1cmwoI3BhaW50MF9saW5lYXJfMzUxNF80MDI2OCkiIHI9IjcuODU2OTYiIGN5PSI3Ljk5NzYyIiBjeD0iNy45OTg4NCIvPiYjeGE7PGcgY2xpcC1wYXRoPSJ1cmwoI2NsaXAwXzM1MTRfNDAyNjgpIj4mI3hhOzxwYXRoIGZpbGw9InVybCgjcGFpbnQxX2xpbmVhcl8zNTE0XzQwMjY4KSIgZD0iTTcuOTQ5NTggMi44OTc3MUM2LjQyNzE1IDIuODk3NzEgNS4yNzc5NSAzLjk2MDAxIDQuOTEzNDkgNS4yMDYwOEM0LjUxMDcgNS4yOTI5NiA0LjE0MjEzIDUuNDc0NDUgMy44MzI3NyA1Ljc0NTc3QzMuMjc3NDcgNi4yMzI3OSAyLjk5OTAyIDYuOTM0MTMgMi45OTkwMiA3LjY1MzAxQzIuOTk5MDIgOC4zMDY1NCAzLjIwOTcgOC45NjQzNCAzLjcxNDYyIDkuNDU4MDNDNC4xMSA5Ljg0NDYzIDQuNjE1OTMgMTAuMDYyNSA1LjE2OTczIDEwLjEzODZWMTAuMDI0MkM1LjE2OTczIDkuNzIwMzUgNS4yODA2NCA5LjQ0MjM4IDUuNDY0MiA5LjIyODU5QzQuOTYzODYgOS4wNzU2MSA0LjU5OTk2IDguNjEwMTkgNC41OTk5NiA4LjA1OTc3VjcuNzIwNzdDNC41OTk5NiA3LjA0NTg1IDUuMTQ3MDkgNi40OTg3MyA1LjgyMiA2LjQ5ODczSDYuMTU5MTdDNi4xNzEwNyA2LjQ5ODczIDYuMTgyOTMgNi40OTg5IDYuMTk0NzUgNi40OTkyNEM2LjE3NTk3IDYuNDE0MTEgNi4xNjYwOCA2LjMyNTY0IDYuMTY2MDggNi4yMzQ4NlY1Ljg5NTg3QzYuMTY2MDggNS4yMjA5NSA2LjcxMzIgNC42NzM4MyA3LjM4ODExIDQuNjczODNINy43MjUyOUM4LjQwMDIgNC42NzM4MyA4Ljk0NzMzIDUuMjIwOTUgOC45NDczMyA1Ljg5NTg3VjYuMTc4NzdDOS4xNzE0OCA1LjkxNTIxIDkuNTA1NTMgNS43NDgwMSA5Ljg3ODYzIDUuNzQ4MDFIMTAuMjE1OEMxMC44OTA3IDUuNzQ4MDEgMTEuNDM3OCA2LjI5NTEzIDExLjQzNzggNi45NzAwNFY3LjMwOTA0QzExLjQzNzggNy42NjM0OCAxMS4yODY5IDcuOTgyNjggMTEuMDQ1OSA4LjIwNTg5QzExLjIzMTIgOC40MjAxMyAxMS4zNDMzIDguNjk5NDUgMTEuMzQzMyA5LjAwNDk1VjkuNDU4QzExLjM0MzMgOS42MjU1NiAxMS4zMDk2IDkuNzg1MjQgMTEuMjQ4NiA5LjkzMDYzQzEyLjIzNDEgOS41MTg2OSAxMi45OTkgOC41OTgwOSAxMi45OTkgNy4yODcyQzEyLjk5OSA1LjgyNDczIDExLjk3ODYgNC42OTQ1NyAxMC43MTMxIDQuNDQzNDlDMTAuMTQzOCAzLjUxNDMgOS4xODIzIDIuODk3NzEgNy45NDk1OCAyLjg5NzcxWiIvPiYjeGE7PHBhdGggZmlsbD0idXJsKCNwYWludDJfcmFkaWFsXzM1MTRfNDAyNjgpIiBkPSJNNy43MjUzMSA1LjE3MTg4QzguMTI0MDggNS4xNzE4OCA4LjQ0NzM0IDUuNDk1MTQgOC40NDczNCA1Ljg5MzkxVjYuMjMyOTFDOC40NDczNCA2LjQ1NjIxIDguMzQ1OTggNi42NTU4NCA4LjE4Njc1IDYuNzg4MjhMOC4zNTM4NCA3LjQ1MDkzSDguMzc3OTRDOC40NDc3IDcuNDUwOTMgOC41MTMzOSA3LjQ2ODM3IDguNTcwODggNy40OTkxM0w5LjE1NjYzIDcuMjAxOTVWNi45NjgxM0M5LjE1NjYzIDYuNTY5MzYgOS40Nzk5IDYuMjQ2MDkgOS44Nzg2NyA2LjI0NjA5SDEwLjIxNThDMTAuNjE0NiA2LjI0NjA5IDEwLjkzNzkgNi41NjkzNiAxMC45Mzc5IDYuOTY4MTNWNy4zMDcxM0MxMC45Mzc5IDcuNzA1OSAxMC42MTQ2IDguMDI5MTcgMTAuMjE1OCA4LjAyOTE3SDkuODc4NjdDOS42NzE4MyA4LjAyOTE3IDkuNDg1MyA3Ljk0MjE5IDkuMzUzNjYgNy44MDI4Mkw4Ljc4NzQ4IDguMDkwMDhWOC4xNjE2Nkw4Ljc4OTM3IDguMTU4NzhMOS4yMTg0MyA4LjQzOTlDOS4zNDIxNSA4LjM0MDQ5IDkuNDk5MzEgOC4yODEwMSA5LjY3MDM2IDguMjgxMDFIMTAuMTIxNEMxMC41MjAyIDguMjgxMDEgMTAuODQzNCA4LjYwNDI3IDEwLjg0MzQgOS4wMDMwNFY5LjQ1NjA5QzEwLjg0MzQgOS44NTQ4NiAxMC41MjAyIDEwLjE3ODEgMTAuMTIxNCAxMC4xNzgxSDkuNjcwMzZDOS4yNzE1OSAxMC4xNzgxIDguOTQ4MzMgOS44NTQ4NiA4Ljk0ODMzIDkuNDU2MDlWOS4wMTAxM0w4LjU2MTUzIDguNzU2N0M4LjUwNjMxIDguNzg0NDQgOC40NDM5NSA4LjgwMDA2IDguMzc3OTQgOC44MDAwNkg4LjA0NDM1TDcuMzc0ODYgOS42OTkwNEM3LjQyMzY1IDkuNzk2MyA3LjQ1MTExIDkuOTA2MTEgNy40NTExMSAxMC4wMjIzVjEwLjM2MTNDNy40NTExMSAxMC43NjAxIDcuMTI3ODQgMTEuMDgzNCA2LjcyOTA3IDExLjA4MzRINi4zOTE5QzUuOTkzMTMgMTEuMDgzNCA1LjY2OTg2IDEwLjc2MDEgNS42Njk4NiAxMC4zNjEzTDUuNjY5ODYgMTAuMDIyM0M1LjY2OTg2IDkuNjIzNTYgNS45OTMxMyA5LjMwMDI5IDYuMzkxOSA5LjMwMDI5SDYuNzI5MDdDNi43ODEwNyA5LjMwMDI5IDYuODMxNzkgOS4zMDU3OSA2Ljg4MDY3IDkuMzE2MjNMNy40NjM4NiA4LjUzMzEzQzcuNDQ3MzYgOC40ODg3MiA3LjQzODM1IDguNDQwNjcgNy40MzgzNSA4LjM5MDUyVjguMjg0NjZMNi44NDUwMSA4LjI4NDY2QzYuNzQ5OTEgOC41NzIzMyA2LjQ3ODg1IDguNzc5OSA2LjE1OTMxIDguNzc5OUg1LjgyMjE0QzUuNDIzMzcgOC43Nzk5IDUuMTAwMSA4LjQ1NjYzIDUuMTAwMSA4LjA1Nzg2TDUuMTAwMSA3LjcxODg2QzUuMTAwMSA3LjMyMDA5IDUuNDIzMzcgNi45OTY4MyA1LjgyMjE0IDYuOTk2ODNINi4xNTkzMUM2LjUzODE1IDYuOTk2ODMgNi44NDg4NCA3LjI4ODU4IDYuODc4OTYgNy42NTk2Nkw3LjQ5MDg3IDcuNjU5NjZDNy41Mzk3NiA3LjU3MjkzIDcuNjE5MzMgNy41MDU4MSA3LjcxNDg1IDcuNDczMDJMNy41ODQyMSA2Ljk1NDk1SDcuMzg4MTNDNi45ODkzNiA2Ljk1NDk1IDYuNjY2MDkgNi42MzE2OCA2LjY2NjA5IDYuMjMyOTFWNS44OTM5MUM2LjY2NjA5IDUuNDk1MTQgNi45ODkzNiA1LjE3MTg4IDcuMzg4MTMgNS4xNzE4OEg3LjcyNTMxWk03LjgyMjM0IDUuODkzOTFDNy44MjIzNCA1Ljg0MDMyIDcuNzc4OSA1Ljc5Njg4IDcuNzI1MzEgNS43OTY4OEw3LjM4ODEzIDUuNzk2ODdDNy4zMzQ1NCA1Ljc5Njg3IDcuMjkxMDkgNS44NDAzMiA3LjI5MTA5IDUuODkzOTFWNi4yMzI5MUM3LjI5MTA5IDYuMjg2NSA3LjMzNDU0IDYuMzI5OTUgNy4zODgxMyA2LjMyOTk1SDcuNzI1MzFDNy43Nzg5IDYuMzI5OTUgNy44MjIzNCA2LjI4NjUgNy44MjIzNCA2LjIzMjkxVjUuODkzOTFaTTEwLjMxMjkgNi45NjgxM0MxMC4zMTI5IDYuOTE0NTQgMTAuMjY5NCA2Ljg3MTA5IDEwLjIxNTggNi44NzEwOUg5Ljg3ODY3QzkuODI1MDggNi44NzEwOSA5Ljc4MTYzIDYuOTE0NTQgOS43ODE2MyA2Ljk2ODEzVjcuMzA3MTNDOS43ODE2MyA3LjM2MDcyIDkuODI1MDggNy40MDQxNyA5Ljg3ODY3IDcuNDA0MTdIMTAuMjE1OEMxMC4yNjk0IDcuNDA0MTcgMTAuMzEyOSA3LjM2MDcyIDEwLjMxMjkgNy4zMDcxM1Y2Ljk2ODEzWk0xMC4yMTg0IDkuMDAzMDRDMTAuMjE4NCA4Ljk0OTQ1IDEwLjE3NSA4LjkwNjAxIDEwLjEyMTQgOC45MDYwMUg5LjY3MDM2QzkuNjE2NzcgOC45MDYwMSA5LjU3MzMzIDguOTQ5NDUgOS41NzMzMyA5LjAwMzA0VjkuNDU2MDlDOS41NzMzMyA5LjUwOTY4IDkuNjE2NzcgOS41NTMxMyA5LjY3MDM2IDkuNTUzMTNIMTAuMTIxNEMxMC4xNzUgOS41NTMxMyAxMC4yMTg0IDkuNTA5NjggMTAuMjE4NCA5LjQ1NjA5VjkuMDAzMDRaTTYuMTU5MzEgNy42MjE4M0M2LjIxMjkgNy42MjE4MyA2LjI1NjM1IDcuNjY1MjcgNi4yNTYzNSA3LjcxODg2VjguMDU3ODZDNi4yNTYzNSA4LjExMTQ2IDYuMjEyOSA4LjE1NDkgNi4xNTkzMSA4LjE1NDlINS44MjIxNEM1Ljc2ODU0IDguMTU0OSA1LjcyNTEgOC4xMTE0NiA1LjcyNTEgOC4wNTc4NlY3LjcxODg2QzUuNzI1MSA3LjY2NTI3IDUuNzY4NTQgNy42MjE4MyA1LjgyMjE0IDcuNjIxODNINi4xNTkzMVpNNi44MjYxMSAxMC4wMjIzQzYuODI2MTEgOS45Njg3NCA2Ljc4MjY3IDkuOTI1MjkgNi43MjkwNyA5LjkyNTI5SDYuMzkxOUM2LjMzODMxIDkuOTI1MjkgNi4yOTQ4NiA5Ljk2ODc0IDYuMjk0ODYgMTAuMDIyM1YxMC4zNjEzQzYuMjk0ODYgMTAuNDE0OSA2LjMzODMxIDEwLjQ1ODQgNi4zOTE5IDEwLjQ1ODRINi43MjkwN0M2Ljc4MjY3IDEwLjQ1ODQgNi44MjYxMSAxMC40MTQ5IDYuODI2MTEgMTAuMzYxM1YxMC4wMjIzWiIgY2xpcC1ydWxlPSJldmVub2RkIiBmaWxsLXJ1bGU9ImV2ZW5vZGQiLz4mI3hhOzxwYXRoIGZpbGw9InVybCgjcGFpbnQzX3JhZGlhbF8zNTE0XzQwMjY4KSIgZD0iTTQuMjU4NzkgMTAuNTIyN0M0LjUwMDQxIDEwLjUyMjcgNC42OTYyOSAxMC43MTg2IDQuNjk2MjkgMTAuOTYwMlYxMS40NjAyQzQuNjk2MjkgMTEuNzcwOSA0Ljk0ODEzIDEyLjAyMjcgNS4yNTg3OSAxMi4wMjI3SDEwLjc1ODhDMTEuMDY5NCAxMi4wMjI3IDExLjMyMTMgMTEuNzcwOSAxMS4zMjEzIDExLjQ2MDJWMTAuOTYwMkMxMS4zMjEzIDEwLjcxODYgMTEuNTE3MiAxMC41MjI3IDExLjc1ODggMTAuNTIyN0MxMi4wMDA0IDEwLjUyMjcgMTIuMTk2MyAxMC43MTg2IDEyLjE5NjMgMTAuOTYwMlYxMS40NjAyQzEyLjE5NjMgMTIuMjU0MSAxMS41NTI3IDEyLjg5NzcgMTAuNzU4OCAxMi44OTc3SDUuMjU4NzlDNC40NjQ4OCAxMi44OTc3IDMuODIxMjkgMTIuMjU0MSAzLjgyMTI5IDExLjQ2MDJWMTAuOTYwMkMzLjgyMTI5IDEwLjcxODYgNC4wMTcxNiAxMC41MjI3IDQuMjU4NzkgMTAuNTIyN1pNMTAuNTIzNCAxMS42Mzc5QzEwLjczMDUgMTEuNjM3OSAxMC44OTg0IDExLjQ3IDEwLjg5ODQgMTEuMjYyOUMxMC44OTg0IDExLjA1NTggMTAuNzMwNSAxMC44ODc5IDEwLjUyMzQgMTAuODg3OUMxMC4zMTYzIDEwLjg4NzkgMTAuMTQ4NCAxMS4wNTU4IDEwLjE0ODQgMTEuMjYyOUMxMC4xNDg0IDExLjQ3IDEwLjMxNjMgMTEuNjM3OSAxMC41MjM0IDExLjYzNzlaTTkuNzQ5NzQgMTEuMjYyOUM5Ljc0OTc0IDExLjQ3IDkuNTgxODUgMTEuNjM3OSA5LjM3NDc0IDExLjYzNzlDOS4xNjc2MyAxMS42Mzc5IDguOTk5NzQgMTEuNDcgOC45OTk3NCAxMS4yNjI5QzguOTk5NzQgMTEuMDU1OCA5LjE2NzYzIDEwLjg4NzkgOS4zNzQ3NCAxMC44ODc5QzkuNTgxODUgMTAuODg3OSA5Ljc0OTc0IDExLjA1NTggOS43NDk3NCAxMS4yNjI5WiIgY2xpcC1ydWxlPSJldmVub2RkIiBmaWxsLXJ1bGU9ImV2ZW5vZGQiLz4mI3hhOzwvZz4mI3hhOzxkZWZzPiYjeGE7PGxpbmVhckdyYWRpZW50IGdyYWRpZW50VW5pdHM9InVzZXJTcGFjZU9uVXNlIiB5Mj0iMTQuNzQ1NiIgeDI9IjEzLjY4NjkiIHkxPSIyLjI2ODciIHgxPSIxLjQ0OTk1IiBpZD0icGFpbnQwX2xpbmVhcl8zNTE0XzQwMjY4Ij4mI3hhOzxzdG9wIHN0b3AtY29sb3I9IndoaXRlIi8+JiN4YTs8c3RvcCBzdG9wLWNvbG9yPSIjRUFFQ0VFIiBvZmZzZXQ9IjEiLz4mI3hhOzwvbGluZWFyR3JhZGllbnQ+JiN4YTs8bGluZWFyR3JhZGllbnQgZ3JhZGllbnRVbml0cz0idXNlclNwYWNlT25Vc2UiIHkyPSIxMC42MzQ0IiB4Mj0iOS4zMTQ0MSIgeTE9IjMuOTgwNTQiIHgxPSI0LjQ5ODA3IiBpZD0icGFpbnQxX2xpbmVhcl8zNTE0XzQwMjY4Ij4mI3hhOzxzdG9wIHN0b3AtY29sb3I9IiMwMTk1RkYiLz4mI3hhOzxzdG9wIHN0b3AtY29sb3I9IiMxMTQ3RTkiIG9mZnNldD0iMC45OTEwMjgiLz4mI3hhOzwvbGluZWFyR3JhZGllbnQ+JiN4YTs8cmFkaWFsR3JhZGllbnQgZ3JhZGllbnRUcmFuc2Zvcm09InRyYW5zbGF0ZSg2LjAwNDA3IDYuMDYxMTcpIHJvdGF0ZSg0NS4zNTk0KSBzY2FsZSg1Ljc4NzI0IDUuMjczMjgpIiBncmFkaWVudFVuaXRzPSJ1c2VyU3BhY2VPblVzZSIgcj0iMSIgY3k9IjAiIGN4PSIwIiBpZD0icGFpbnQyX3JhZGlhbF8zNTE0XzQwMjY4Ij4mI3hhOzxzdG9wIHN0b3AtY29sb3I9IiMxMzQ4RkYiLz4mI3hhOzxzdG9wIHN0b3AtY29sb3I9IiMwNjIzOEQiIG9mZnNldD0iMSIvPiYjeGE7PC9yYWRpYWxHcmFkaWVudD4mI3hhOzxyYWRpYWxHcmFkaWVudCBncmFkaWVudFRyYW5zZm9ybT0idHJhbnNsYXRlKDUuMTE4MTQgMTAuODgpIHJvdGF0ZSgxNS44MzI0KSBzY2FsZSg2LjA2Mzg0IDIuOTAwNzMpIiBncmFkaWVudFVuaXRzPSJ1c2VyU3BhY2VPblVzZSIgcj0iMSIgY3k9IjAiIGN4PSIwIiBpZD0icGFpbnQzX3JhZGlhbF8zNTE0XzQwMjY4Ij4mI3hhOzxzdG9wIHN0b3AtY29sb3I9IiMxMzQ4RkYiLz4mI3hhOzxzdG9wIHN0b3AtY29sb3I9IiMwNjIzOEQiIG9mZnNldD0iMSIvPiYjeGE7PC9yYWRpYWxHcmFkaWVudD4mI3hhOzxjbGlwUGF0aCBpZD0iY2xpcDBfMzUxNF80MDI2OCI+JiN4YTs8cmVjdCB0cmFuc2Zvcm09InRyYW5zbGF0ZSgyLjk5OTAyIDIuODk3NzEpIiBmaWxsPSJ3aGl0ZSIgaGVpZ2h0PSIxMCIgd2lkdGg9IjEwIi8+JiN4YTs8L2NsaXBQYXRoPiYjeGE7PC9kZWZzPiYjeGE7PC9zdmc+;points=[[0,0,0,0,0],[0,0.25,0,0,0],[0,0.5,0,0,0],[0,0.75,0,0,0],[0.25,0,0,0,0],[0.5,0,0,0,0],[0.75,0,0,0,0],[1,0,0,0,0],[1,0.25,0,0,0],[1,0.5,0,0,0],[1,0.75,0,0,0]];container=0;fontStyle=0;fontSize=12;fontColor=#1D2D3E;" parent="i0-r0BhkWRjA8PmNq9u2-2" vertex="1">
          <mxGeometry x="90.11999999999999" y="203.3541176470588" width="56.470588235294116" height="56.470588235294116" as="geometry" />
        </mxCell>
        <mxCell id="i0-r0BhkWRjA8PmNq9u2-51" value="SAP Connectivity&#xa;Service" style="shape=image;verticalLabelPosition=bottom;verticalAlign=top;imageAspect=0;aspect=fixed;image=data:image/svg+xml,PHN2ZyB4bWxucz0iaHR0cDovL3d3dy53My5vcmcvMjAwMC9zdmciIGZpbGw9Im5vbmUiIHZpZXdCb3g9IjAgMCAxNiAxNiIgaGVpZ2h0PSIxNiIgd2lkdGg9IjE2Ij4mI3hhOzxjaXJjbGUgc3Ryb2tlLXdpZHRoPSIwLjI4NTcwOCIgc3Ryb2tlPSIjRDVEQUREIiBmaWxsPSJ1cmwoI3BhaW50MF9saW5lYXJfMzUxNF80MDIwMikiIHI9IjcuODU2OTYiIGN5PSI3Ljk5OTA4IiBjeD0iNy45OTkzMyIvPiYjeGE7PGcgY2xpcC1wYXRoPSJ1cmwoI2NsaXAwXzM1MTRfNDAyMDIpIj4mI3hhOzxwYXRoIGZpbGw9InVybCgjcGFpbnQxX2xpbmVhcl8zNTE0XzQwMjAyKSIgZD0iTTguNTgyOTIgNC4xMTQ3NEM4LjU4MjkyIDMuODM4NiA4LjgwNjc4IDMuNjE0NzUgOS4wODI5MiAzLjYxNDc1SDEwLjYyNjRDMTEuNTkyOSAzLjYxNDc1IDEyLjM3NjQgNC4zOTgyNSAxMi4zNzY0IDUuMzY0NzRWNi42OTM5NUMxMi4zNzY0IDYuOTcwMSAxMi4xNTI1IDcuMTkzOTUgMTEuODc2NCA3LjE5Mzk1QzExLjYwMDIgNy4xOTM5NSAxMS4zNzY0IDYuOTcwMSAxMS4zNzY0IDYuNjkzOTVWNS4zNjQ3NEMxMS4zNzY0IDQuOTUwNTMgMTEuMDQwNiA0LjYxNDc0IDEwLjYyNjQgNC42MTQ3NEg5LjA4MjkyQzguODA2NzggNC42MTQ3NCA4LjU4MjkyIDQuMzkwODkgOC41ODI5MiA0LjExNDc0Wk00LjEyMTU4IDguNTMzMjRDNC4zOTc3MiA4LjUzMzI0IDQuNjIxNTggOC43NTcxIDQuNjIxNTggOS4wMzMyNFYxMC42MjgxQzQuNjIxNTggMTEuMDQyMyA0Ljk1NzM2IDExLjM3ODEgNS4zNzE1OCAxMS4zNzgxSDcuMDY5MjVDNy4zNDUzOSAxMS4zNzgxIDcuNTY5MjUgMTEuNjAxOSA3LjU2OTI1IDExLjg3ODFDNy41NjkyNSAxMi4xNTQyIDcuMzQ1MzkgMTIuMzc4MSA3LjA2OTI1IDEyLjM3ODFINS4zNzE1OEM0LjQwNTA4IDEyLjM3ODEgMy42MjE1OCAxMS41OTQ2IDMuNjIxNTggMTAuNjI4MVY5LjAzMzI0QzMuNjIxNTggOC43NTcxIDMuODQ1NDQgOC41MzMyNCA0LjEyMTU4IDguNTMzMjRaIiBjbGlwLXJ1bGU9ImV2ZW5vZGQiIGZpbGwtcnVsZT0iZXZlbm9kZCIvPiYjeGE7PHBhdGggZmlsbD0idXJsKCNwYWludDJfbGluZWFyXzM1MTRfNDAyMDIpIiBkPSJNMTIuODQzMiAxMS45MzI4QzEyLjk0NzQgMTIuMDM3IDEyLjk5OTUgMTIuMTQ3NyAxMi45OTk1IDEyLjI2NDlDMTIuOTk5NSAxMi4zOTUxIDEyLjk0NzQgMTIuNTEyMyAxMi44NDMyIDEyLjYxNjRDMTIuNzM5MSAxMi43MjA2IDEyLjYyMTkgMTIuNzcyNyAxMi40OTE3IDEyLjc3MjdDMTIuMzc0NSAxMi43NzI3IDEyLjI2MzggMTIuNzIwNiAxMi4xNTk2IDEyLjYxNjRMMTAuNzcyOSAxMS4yMjk3QzEwLjM2OTMgMTEuNTgxMyA5LjkxMzU2IDExLjc1MDYgOS40MDU3NSAxMS43Mzc1QzguODk3OTQgMTEuNzExNSA4LjQ1NTI0IDExLjUwOTcgOC4wNzc2MyAxMS4xMzIxTDcuNjI4NDIgMTAuNjgyOEM3LjUyNDI1IDEwLjU3ODcgNy40NzIxNyAxMC40NjggNy40NzIxNyAxMC4zNTA4QzcuNDcyMTcgMTAuMjIwNiA3LjUyNDI1IDEwLjEwMzQgNy42Mjg0MiA5Ljk5OTI2TDEwLjE2NzUgNy40NjAyQzEwLjI3MTYgNy4zNTYwNCAxMC4zODg4IDcuMzAzOTYgMTAuNTE5IDcuMzAzOTZDMTAuNjQ5MiA3LjMwMzk2IDEwLjc2NjQgNy4zNTYwNCAxMC44NzA2IDcuNDYwMkwxMS4zMTk4IDcuOTA5NDJDMTEuNjk3NCA4LjI4NzAyIDExLjg5MjcgOC43MjMyMiAxMS45MDU3IDkuMjE4MDFDMTEuOTMxOCA5LjY5OTc4IDExLjc4MiAxMC4xMzYgMTEuNDU2NSAxMC41MjY2TDEyLjg0MzIgMTEuOTMyOFoiIGNsaXAtcnVsZT0iZXZlbm9kZCIgZmlsbC1ydWxlPSJldmVub2RkIi8+JiN4YTs8cGF0aCBmaWxsPSJ1cmwoI3BhaW50M19saW5lYXJfMzUxNF80MDIwMikiIGQ9Ik03LjcxNTE4IDguNzA0MDZDNy42MTEwMSA4LjgwODIzIDcuNDkzODIgOC44NjAzMSA3LjM2MzYxIDguODYwMzFDNy4yNDY0MiA4Ljg2MDMxIDcuMTM1NzUgOC44MDgyMyA3LjAzMTU4IDguNzA0MDZMNi4xMzMxNCA3LjgwNTYzTDUuNzQyNTIgOC4xOTYyNUM1LjYzODM1IDguMzAwNDIgNS41MjExNiA4LjM1MjUgNS4zOTA5NSA4LjM1MjVDNS4yNDc3MyA4LjM1MjUgNS4xMzA1NCA4LjMwMDQyIDUuMDM5MzkgOC4xOTYyNUw0LjU5MDE3IDcuNzY2NTdDNC4yMTI1NyA3LjM4ODk2IDQuMDEwNzUgNi45NTkyOCAzLjk4NDcgNi40Nzc1MUMzLjk1ODY2IDUuOTgyNzIgNC4wOTUzOCA1LjUzMzUgNC4zOTQ4NiA1LjEyOTg2TDMuMTU1NzYgMy44NTgzOUMzLjA1MTYgMy43NTQyMyAyLjk5OTUxIDMuNjM3MDQgMi45OTk1MSAzLjUwNjgzQzIuOTk5NTEgMy4zNzY2MyAzLjA1MTYgMy4yNTk0NCAzLjE1NTc2IDMuMTU1MjdDMy4yNTk5MyAzLjA1MTExIDMuMzcwNjEgMi45OTkwMiAzLjQ4Nzc5IDIuOTk5MDJDMy42MTggMi45OTkwMiAzLjczNTE5IDMuMDUxMTEgMy44MzkzNiAzLjE1NTI3TDUuMDc4NDUgNC40MjY3NEM1LjQ4MjEgNC4xMDEyMiA1LjkzNzgzIDMuOTUxNDggNi40NDU2NCAzLjk3NzUyQzYuOTUzNDYgNC4wMDM1NiA3LjM5NjE2IDQuMjA1MzggNy43NzM3NyA0LjU4Mjk5TDguMjIyOTkgNS4wMzIyQzguMzE0MTMgNS4xMjMzNSA4LjM1OTcxIDUuMjQwNTMgOC4zNTk3MSA1LjM4Mzc2QzguMzU5NzEgNS41MTM5NyA4LjMxNDEzIDUuNjI0NjUgOC4yMjI5OSA1LjcxNTc5TDcuODEyODMgNi4xMjU5NUw4LjcxMTI3IDcuMDA0ODVDOC44MTU0NCA3LjEwOTAyIDguODY3NTIgNy4yMjYyIDguODY3NTIgNy4zNTY0MUM4Ljg2NzUyIDcuNDg2NjIgOC44MTU0NCA3LjYwMzgxIDguNzExMjcgNy43MDc5N0M4LjYwNzEgNy44MTIxNCA4LjQ4OTkyIDcuODY0MjIgOC4zNTk3MSA3Ljg2NDIyQzguMjI5NSA3Ljg2NDIyIDguMTEyMzEgNy44MTIxNCA4LjAwODE0IDcuNzA3OTdMNy4xMjkyNCA2LjgwOTU0TDYuODE2NzQgNy4xMjIwNEw3LjI2NTk2IDcuNTYxNDlMNy43MTUxOCA4LjAwMDk0QzcuODE5MzQgOC4xMDUxMSA3Ljg3MTQzIDguMjIyMjkgNy44NzE0MyA4LjM1MjVDNy44NzE0MyA4LjQ4MjcxIDcuODE5MzQgOC41OTk5IDcuNzE1MTggOC43MDQwNloiLz4mI3hhOzwvZz4mI3hhOzxkZWZzPiYjeGE7PGxpbmVhckdyYWRpZW50IGdyYWRpZW50VW5pdHM9InVzZXJTcGFjZU9uVXNlIiB5Mj0iMTQuNzQ3IiB4Mj0iMTMuNjg3NCIgeTE9IjIuMjcwMTYiIHgxPSIxLjQ1MDQzIiBpZD0icGFpbnQwX2xpbmVhcl8zNTE0XzQwMjAyIj4mI3hhOzxzdG9wIHN0b3AtY29sb3I9IndoaXRlIi8+JiN4YTs8c3RvcCBzdG9wLWNvbG9yPSIjRUFFQ0VFIiBvZmZzZXQ9IjEiLz4mI3hhOzwvbGluZWFyR3JhZGllbnQ+JiN4YTs8bGluZWFyR3JhZGllbnQgZ3JhZGllbnRVbml0cz0idXNlclNwYWNlT25Vc2UiIHkyPSIxMS4wNTc0IiB4Mj0iMTEuMDciIHkxPSI0LjkyNTI1IiB4MT0iNC45MzM5NiIgaWQ9InBhaW50MV9saW5lYXJfMzUxNF80MDIwMiI+JiN4YTs8c3RvcCBzdG9wLWNvbG9yPSIjMDE5NUZGIi8+JiN4YTs8c3RvcCBzdG9wLWNvbG9yPSIjMTE0N0U5IiBvZmZzZXQ9IjAuOTkxMDI4Ii8+JiN4YTs8L2xpbmVhckdyYWRpZW50PiYjeGE7PGxpbmVhckdyYWRpZW50IGdyYWRpZW50VW5pdHM9InVzZXJTcGFjZU9uVXNlIiB5Mj0iMTEuOTkxOCIgeDI9IjEyLjEyODQiIHkxPSI4LjEyNDQ0IiB4MT0iOC4yOTkzOCIgaWQ9InBhaW50Ml9saW5lYXJfMzUxNF80MDIwMiI+JiN4YTs8c3RvcCBzdG9wLWNvbG9yPSIjMDBCQkZGIi8+JiN4YTs8c3RvcCBzdG9wLWNvbG9yPSIjMDA4QkZGIiBvZmZzZXQ9IjEiLz4mI3hhOzwvbGluZWFyR3JhZGllbnQ+JiN4YTs8bGluZWFyR3JhZGllbnQgZ3JhZGllbnRVbml0cz0idXNlclNwYWNlT25Vc2UiIHkyPSI3Ljk4NTcxIiB4Mj0iNy45NjkwMiIgeTE9IjMuODYxMzQiIHgxPSIzLjg2NzA2IiBpZD0icGFpbnQzX2xpbmVhcl8zNTE0XzQwMjAyIj4mI3hhOzxzdG9wIHN0b3AtY29sb3I9IiMxMzQ4RkYiLz4mI3hhOzxzdG9wIHN0b3AtY29sb3I9IiMwNjIzOEQiIG9mZnNldD0iMSIvPiYjeGE7PC9saW5lYXJHcmFkaWVudD4mI3hhOzxjbGlwUGF0aCBpZD0iY2xpcDBfMzUxNF80MDIwMiI+JiN4YTs8cmVjdCB0cmFuc2Zvcm09InRyYW5zbGF0ZSgyLjk5OTI3IDIuOTk5MDIpIiBmaWxsPSJ3aGl0ZSIgaGVpZ2h0PSI5Ljk5OTk2IiB3aWR0aD0iOS45OTk5NiIvPiYjeGE7PC9jbGlwUGF0aD4mI3hhOzwvZGVmcz4mI3hhOzwvc3ZnPg==;points=[[0,0,0,0,0],[0,0.25,0,0,0],[0,0.5,0,0,0],[0,0.75,0,0,0],[0.25,0,0,0,0],[0.5,0,0,0,0],[0.75,0,0,0,0],[1,0,0,0,0],[1,0.25,0,0,0],[1,0.5,0,0,0],[1,0.75,0,0,0]];fontStyle=0;fontSize=12;fontColor=#1D2D3E;container=0;" parent="i0-r0BhkWRjA8PmNq9u2-2" vertex="1">
          <mxGeometry x="261" y="322" width="56" height="56" as="geometry" />
        </mxCell>
        <mxCell id="i0-r0BhkWRjA8PmNq9u2-52" value="" style="edgeStyle=none;orthogonalLoop=1;jettySize=auto;html=1;rounded=0;endArrow=none;endFill=0;strokeWidth=2;" parent="i0-r0BhkWRjA8PmNq9u2-2" edge="1">
          <mxGeometry width="80" relative="1" as="geometry">
            <mxPoint x="391" as="sourcePoint" />
            <mxPoint x="391" y="640" as="targetPoint" />
            <Array as="points" />
          </mxGeometry>
        </mxCell>
        <mxCell id="i0-r0BhkWRjA8PmNq9u2-55" value="&lt;p style=&quot;line-height: 114%;&quot;&gt;&lt;font color=&quot;#475f75&quot; size=&quot;1&quot;&gt;&lt;b style=&quot;&quot;&gt;TRUST&lt;/b&gt;&lt;/font&gt;&lt;/p&gt;" style="rounded=1;whiteSpace=wrap;html=1;arcSize=50;strokeColor=#475f75;fillColor=#f5f6f7;fontColor=#266f3a;strokeWidth=1.5;" parent="i0-r0BhkWRjA8PmNq9u2-2" vertex="1">
          <mxGeometry x="374.14" y="342" width="41.99" height="16" as="geometry" />
        </mxCell>
        <mxCell id="i0-r0BhkWRjA8PmNq9u2-56" value="" style="endArrow=none;html=1;rounded=0;entryX=0;entryY=0.5;entryDx=0;entryDy=0;strokeColor=#475f75;strokeWidth=1.5;exitX=1;exitY=0.5;exitDx=0;exitDy=0;exitPerimeter=0;" parent="i0-r0BhkWRjA8PmNq9u2-2" source="i0-r0BhkWRjA8PmNq9u2-51" target="i0-r0BhkWRjA8PmNq9u2-55" edge="1">
          <mxGeometry width="50" height="50" relative="1" as="geometry">
            <mxPoint x="270.14" y="329.99999999999955" as="sourcePoint" />
            <mxPoint x="394.14" y="340" as="targetPoint" />
          </mxGeometry>
        </mxCell>
        <mxCell id="i0-r0BhkWRjA8PmNq9u2-59" style="edgeStyle=orthogonalEdgeStyle;rounded=0;orthogonalLoop=1;jettySize=auto;html=1;exitX=1;exitY=0.5;exitDx=0;exitDy=0;exitPerimeter=0;entryX=0;entryY=0.5;entryDx=0;entryDy=0;entryPerimeter=0;strokeColor=#A3A3A3;strokeWidth=2;endArrow=none;endFill=0;" parent="i0-r0BhkWRjA8PmNq9u2-2" source="i0-r0BhkWRjA8PmNq9u2-11" target="i0-r0BhkWRjA8PmNq9u2-51" edge="1">
          <mxGeometry relative="1" as="geometry">
            <Array as="points">
              <mxPoint x="241" y="232" />
              <mxPoint x="241" y="350" />
            </Array>
          </mxGeometry>
        </mxCell>
        <mxCell id="i0-r0BhkWRjA8PmNq9u2-60" style="edgeStyle=orthogonalEdgeStyle;rounded=0;orthogonalLoop=1;jettySize=auto;html=1;exitX=1;exitY=0.5;exitDx=0;exitDy=0;exitPerimeter=0;entryX=0;entryY=0.5;entryDx=0;entryDy=0;entryPerimeter=0;strokeColor=#A3A3A3;strokeWidth=2;endArrow=none;endFill=0;" parent="i0-r0BhkWRjA8PmNq9u2-2" source="i0-r0BhkWRjA8PmNq9u2-15" target="i0-r0BhkWRjA8PmNq9u2-51" edge="1">
          <mxGeometry relative="1" as="geometry">
            <mxPoint x="157" y="242" as="sourcePoint" />
            <mxPoint x="271" y="360" as="targetPoint" />
            <Array as="points">
              <mxPoint x="241" y="474" />
              <mxPoint x="241" y="350" />
            </Array>
          </mxGeometry>
        </mxCell>
        <mxCell id="u_eiFDLE6t4dj08xCjAs-22" value="" style="shape=image;verticalLabelPosition=bottom;verticalAlign=top;imageAspect=0;aspect=fixed;image=data:image/svg+xml,PHN2ZyB4bWxucz0iaHR0cDovL3d3dy53My5vcmcvMjAwMC9zdmciIGZpbGw9Im5vbmUiIHZpZXdCb3g9IjAgMCAyOSAyOCIgaGVpZ2h0PSIyOCIgd2lkdGg9IjI5Ij4mI3hhOzxnIGNsaXAtcGF0aD0idXJsKCNjbGlwMF84NzBfMTg2KSI+JiN4YTs8cGF0aCBmaWxsPSJ1cmwoI3BhaW50MF9saW5lYXJfODcwXzE4NikiIGQ9Ik0yNy40MTU0IDE5LjkzOEMyOC4xODExIDE5LjkzOCAyOC41NjQgMjAuMzIwOSAyOC41NjQgMjEuMDg2NUMyOC41NjQgMjEuODUyMSAyOC4xODExIDIyLjIzNDkgMjcuNDE1NCAyMi4yMzQ5SDEuNzEyNEMxLjM4NDI3IDIyLjIzNDkgMS4xMTA4NCAyMi4xNDM3IDAuODkyMDg5IDIxLjk2MTVDMC42NzMzNCAyMS43NDI4IDAuNTYzOTY1IDIxLjQ1MSAwLjU2Mzk2NSAyMS4wODY1QzAuNTYzOTY1IDIwLjcyMTggMC42NzMzNCAyMC40NDg1IDAuODkyMDg5IDIwLjI2NjFDMS4xMTA4NCAyMC4wNDc0IDEuMzg0MjcgMTkuOTM4IDEuNzEyNCAxOS45MzhIMy4xMzQyN0MzLjEzNDI3IDE5Ljg2NSAzLjExNjAzIDE5LjgxMDQgMy4wNzk1OCAxOS43NzRWMTkuNzE5MkMyLjk3MDIxIDE5LjM5MTEgMi45MTU1MiAxOS4wNjMgMi45MTU1MiAxOC43MzQ5VjcuMDg2NUMyLjkxNTUyIDYuMTAyMTMgMy4yNDM2NCA1LjI4MTgyIDMuODk5ODkgNC42MjU1N0M0LjU1NjE0IDMuOTMyODUgNS4zOTQ2OSAzLjU4NjUxIDYuNDE1NTEgMy41ODY1MUgyMi43MTIzQzIzLjczMzEgMy41ODY1MSAyNC41NzE3IDMuOTMyODUgMjUuMjI4IDQuNjI1NTdDMjUuODg0MiA1LjI4MTgyIDI2LjIxMjMgNi4xMDIxMyAyNi4yMTIzIDcuMDg2NVYxOC43MzQ5QzI2LjIxMjMgMTkuMTM2IDI2LjEzOTMgMTkuNTM2OSAyNS45OTM2IDE5LjkzOEgyNy40MTU0Wk01LjIxMjM5IDE4LjczNDlIMjMuOTE1NVY3LjA4NjVDMjMuOTE1NSA2LjMyMDg4IDIzLjUxNDQgNS45MzgwNiAyMi43MTIzIDUuOTM4MDZINi40MTU1MUM1LjYxMzQzIDUuOTM4MDYgNS4yMTIzOSA2LjMyMDg4IDUuMjEyMzkgNy4wODY1VjE4LjczNDlaIi8+JiN4YTs8L2c+JiN4YTs8ZGVmcz4mI3hhOzxsaW5lYXJHcmFkaWVudCBncmFkaWVudFVuaXRzPSJ1c2VyU3BhY2VPblVzZSIgeTI9IjIxLjgxNzMiIHgyPSIyMi45MDA4IiB5MT0iNS4zNDA3MiIgeDE9IjQuMTgyNyIgaWQ9InBhaW50MF9saW5lYXJfODcwXzE4NiI+JiN4YTs8c3RvcCBzdG9wLWNvbG9yPSIjMjM5NUZGIi8+JiN4YTs8c3RvcCBzdG9wLWNvbG9yPSIjMDA1N0QyIiBvZmZzZXQ9IjEiLz4mI3hhOzwvbGluZWFyR3JhZGllbnQ+JiN4YTs8Y2xpcFBhdGggaWQ9ImNsaXAwXzg3MF8xODYiPiYjeGE7PHJlY3QgdHJhbnNmb3JtPSJ0cmFuc2xhdGUoMC4yNzYzNjcpIiBmaWxsPSJ3aGl0ZSIgaGVpZ2h0PSIyOCIgd2lkdGg9IjI4Ii8+JiN4YTs8L2NsaXBQYXRoPiYjeGE7PC9kZWZzPiYjeGE7PC9zdmc+" vertex="1" parent="i0-r0BhkWRjA8PmNq9u2-2">
          <mxGeometry x="501" y="490" width="82.86" height="80" as="geometry" />
        </mxCell>
        <mxCell id="u_eiFDLE6t4dj08xCjAs-23" value="" style="shape=image;verticalLabelPosition=bottom;labelBackgroundColor=default;verticalAlign=top;aspect=fixed;imageAspect=0;image=data:image/png,iVBORw0KGgoAAAANSUhEUgAAAC0AAAAuCAYAAAC8jpA0AAAAAXNSR0IArs4c6QAAAARnQU1BAACxjwv8YQUAAAAJcEhZcwAAFxEAABcRAcom8z8AAAcVSURBVGhD7ZhpTFRXFMfvM7WxamqrmNhPtU0/1H5p+qVJ035qqq212rjgDjWCgEuwIBYsuCCKVqso1VqXtG6gIGKFCsYI7ohLrFoXBFFkWAZmcIYZ9mHm33PeXHRQfDPo08TEf3LyeGcud35z37nnnvMEXkK9gn5RegX9QE4nHLX34LSZpUNf6Q7tam6ELSMRVTM/RE3cULTeOC0/0U+6QzedzYRhbE+UjxQo+1qgNn4YnHaL/FQf6Q5ty9mAe8MFDGME7o0QMEZ8TKFSLj/VR7pDtxluoSbmM1SNeQ0V4/qgPj2BYrxdfqqPnstGdBiKULM7Hrb8XfQrWqRXPz0XaNafKWkoq6qRd/pKF+jW1laUl5cjOzsb69atQ2RkJIYMGYLx48dj+fLlSE1NxZUrV2C32+V/PJueCdpoNOLgwYOYM2cOAgICsGLFCmRkZODYsWMoLCzEqVOnkJubi02bNmHWrFmYOnWq+vfNmzflDE+np4J2uVwqbFhYGCIiIlTAhoYGOBwOOaKzeHxTUxPKysqQlJSEwMBArF27FlVVVXJE99RtaLPZjMWLFyMkJAQnT56U3u6JnxCHTVBQEAoKCqTXd3UL2mAwYObMmUhMTER9fb30Pr04dCZPnozDhw9Lj2/yGbqurk4NB45Jftx66dKlS5gyZQry8/Olx7t8gm5vb0dcXBxWr14tPfqKQ4Q36Z07d6RHWz5B79u3D+Hh4bqlrK60Y8cOzJ8/X92w3uQVurq6Wg2Lc+fOSU9nOW3FaKvMR1t5Hh3hdO2we/love1hJXl0PQ5HTderydmHU+ehQ4ek58nyCr1z507ExsZSieyUHrccxmNoODkStkODcX/nQNz/ww/3t0jb6oe6DX6oXfqIxQ9EdeT7qE0Yhearx+VMD5WTk4OYmBivm1wT2mazYdGiRTh69Kj0uNV2ZzvqD/jBskfAkiZQt0nA9CvZWmlJVJKuFKie52FRZJECFZOo+vuWroED0JD3FydxOSvN29aG4OBg9fTUkib09evX1dBobm6WHlphUwHq/x6kAlv3CdgzBZq3C9h+EzCvl5ZM4KupLI1+aKafaUwsXae7y1autyt/GISWG2fkzG7xZk9PT5d3XUsTmo/jefPmyTtalPYWNJ4PhiXFDdxIwJW7BDIjFJxboMDaAf4ItGmBQAmNSfVXcHq0gip/AifjurtuQxBcrQ8XhQ+s+Pj4J56uLE3ovXv3Ijk5Wd7Rpmsog+2f92ClkGDg6t0CQcMEBvQVGPKOwJFIBbaNnaEZuIzCY/RHCt7qpeCDNxXkDlVgmkjgowWqwgZTk1AmvwG4e/eu+nS1sogm9NatW9UKrUNO63+wZvSGNV3AkS1wYZ1Avz4KhBCqRQ9X0ETxXecBfZ/CojBEQc8e7jFsSz/pgRqCrhhLNrkvZZ4b8hsAk8mk1iacTZ4kTejNmzd3ii9n/Q1YM/up0E0H6PFuV/Ddp27o/r0FMmYpsNNKe0KbYwRuU2h88a4buP/rFE5fKqjllWbowLfRVlEkv8Fd23DFqHUmaEJzwt+2bZu8o5huMaHh6OcPNiGDX/1dYOVEBemhCiwU0wzcVUwXhgokfqUgjULDMI72wnjajKOE2po5rbXyG6BWftOnT0djY6P0PC5NaE70S5YskXcsF1purYcllaBptS0E3pJFU9DGbOWw0Mge1jgas1igPtgdFuVs1Pjas5I6pT1Od7z5ubF4kjShz58/j9DQUHnnlqvFrB4qagahDWnNINgtBEq5WSvlGSlMjD9xmiPY7ym0vqFcnjAC7VaTnNmtlJQUbNy4UbMo04TmR8W/uri4WHrcctpL0VAwiUKklwpv3kCQv7hBVaODpnYZZZe5HvYjWbg7RxvGvgHzmolwVJfKGR+Ka5wTJ07Iu66lCc1HN3canmmvQ672VqoxMtD8byTseVNgz6HNkyvtcABs2QGwpnrYnqny7yg0ntkPVxddeklJCWbPno2Kigrp6Vqa0KwLFy6o/Z3WRPwDXI42unoY33cy9xgtLVu2TK3XH61zHpVXaI6thIQEdcWfp3hxuP3iw8WbvEKzOLanTZuG48cfr8z0EOdkbpAzMzOlR1s+QbP4dQB3F1xE6a2ioiJMmDBB3nmXz9CsrKwstZ87e/as9Oij0tJS9Un6qm5Bs44cOaKC82n5LB05nwELFy5EXl6e2htyPPuqbkOzOG9zPuXXX/waoDvwFy9exJo1azBjxgysWrVKjWU+wPz9/eUI73oq6A7t378fc+fORXR0tArA7RI/au54uAvh5oE3MYcTF1+8sjyeC32j0ajOYbFYEBUV9fxX2lOcU7kd46OXX+Jwj8dPoMO4w+Y3Upwy09LSUFlZKf+zs/iVma96ZmhPcQ3MefbatWu4fPmyWvxwKHGNrKd0hX5RegX9ovQSQgP/A/q1w9JTRPRkAAAAAElFTkSuQmCC;" vertex="1" parent="i0-r0BhkWRjA8PmNq9u2-2">
          <mxGeometry x="528.5699999999999" y="510" width="27.73" height="28.35" as="geometry" />
        </mxCell>
        <mxCell id="i0-r0BhkWRjA8PmNq9u2-53" value="Firewall" style="text;strokeColor=none;align=center;fillColor=none;html=1;verticalAlign=middle;whiteSpace=wrap;rounded=0;fontStyle=1" parent="1" vertex="1">
          <mxGeometry x="370" y="-10" width="60" height="30" as="geometry" />
        </mxCell>
        <mxCell id="i0-r0BhkWRjA8PmNq9u2-54" value="Cloud&#xa; Connector" style="shape=image;verticalLabelPosition=bottom;verticalAlign=top;aspect=fixed;imageAspect=0;image=data:image/svg+xml,PHN2ZyB4bWxucz0iaHR0cDovL3d3dy53My5vcmcvMjAwMC9zdmciIGZpbGw9Im5vbmUiIHZpZXdCb3g9IjAgMCAxNiAxNiIgaGVpZ2h0PSIxNiIgd2lkdGg9IjE2Ij4mI3hhOzxjaXJjbGUgc3Ryb2tlLXdpZHRoPSIwLjI4NTcwOCIgc3Ryb2tlPSIjRDVEQUREIiBmaWxsPSJ1cmwoI3BhaW50MF9saW5lYXJfMzg5MF8yMTUzNSkiIHI9IjcuODU2OTYiIGN5PSI3Ljk5NzM4IiBjeD0iNy45OTczOCIvPiYjeGE7PGcgY2xpcC1wYXRoPSJ1cmwoI2NsaXAwXzM4OTBfMjE1MzUpIj4mI3hhOzxwYXRoIGZpbGw9InVybCgjcGFpbnQxX2xpbmVhcl8zODkwXzIxNTM1KSIgZD0iTTcuODc5MTggOC42NDM4MUM3Ljk2MzM1IDguNjIxNDkgOC4wNDEzMyA4LjU3NDQ0IDguMTEzMTIgOC41MDI2NUM4LjIxNzI5IDguMzk4NDggOC4yNjkzNyA4LjI4MTI5IDguMjY5MzcgOC4xNTEwOEM4LjI2OTM3IDguMDIwODggOC4yMTcyOSA3LjkwMzY5IDguMTEzMTIgNy43OTk1Mkw3LjIxNDY5IDYuOTIwNjJMNy41MjcxOSA2LjYwODEyTDguNDA2MDkgNy41MDY1NkM4LjUxMDI2IDcuNjEwNzIgOC42Mjc0NSA3LjY2MjgxIDguNzU3NjYgNy42NjI4MUM4Ljg4Nzg2IDcuNjYyODEgOS4wMDUwNSA3LjYxMDcyIDkuMTA5MjIgNy41MDY1NkM5LjIxMzM5IDcuNDAyMzkgOS4yNjU0NyA3LjI4NTIgOS4yNjU0NyA3LjE1NDk5QzkuMjY1NDcgNy4wMjQ3OSA5LjIxMzM5IDYuOTA3NiA5LjEwOTIyIDYuODAzNDNMOC4yMTA3OCA1LjkyNDUzTDguNjIwOTQgNS41MTQzOEM4LjcxMjA4IDUuNDIzMjMgOC43NTc2NiA1LjMxMjU1IDguNzU3NjYgNS4xODIzNUM4Ljc1NzY2IDUuMDM5MTIgOC43MTIwOCA0LjkyMTkzIDguNjIwOTQgNC44MzA3OUw4LjE3MTcyIDQuMzgxNTdDNy43OTQxMSA0LjAwMzk3IDcuMzUxNCAzLjgwMjE0IDYuODQzNTkgMy43NzYxQzYuMzM1NzggMy43NTAwNiA1Ljg4MDA1IDMuODk5OCA1LjQ3NjQgNC4yMjUzMkw0LjIzNzMxIDIuOTUzODZDNC4xMzMxNCAyLjg0OTY5IDQuMDE1OTUgMi43OTc2MSAzLjg4NTc0IDIuNzk3NjFDMy43Njg1NSAyLjc5NzYxIDMuNjU3ODggMi44NDk2OSAzLjU1MzcxIDIuOTUzODZDMy40NDk1NCAzLjA1ODAyIDMuMzk3NDYgMy4xNzUyMSAzLjM5NzQ2IDMuMzA1NDJDMy4zOTc0NiAzLjQzNTYzIDMuNDQ5NTQgMy41NTI4MSAzLjU1MzcxIDMuNjU2OThMNC43OTI4MSA0LjkyODQ0QzQuNDkzMzMgNS4zMzIwOSA0LjM1NjYxIDUuNzgxMyA0LjM4MjY1IDYuMjc2MDlDNC40MDg2OSA2Ljc1Nzg2IDQuNjEwNTIgNy4xODc1NSA0Ljk4ODEyIDcuNTY1MTVMNS4zNTkyMSA3LjkyMDFDNS41ODIzNyA3Ljg1Mzg1IDUuODEzMjMgNy44MjAxOSA2LjA0ODk4IDcuODIwMTlDNi41NjI2OCA3LjgyMDE5IDcuMDM3OSA3Ljk3OTkzIDcuNDUyNTQgOC4yNzEzQzcuNjA5ODYgOC4zODE4NSA3Ljc1MjAzIDguNTA2NTQgNy44NzkxOCA4LjY0MzgxWiIvPiYjeGE7PHBhdGggZmlsbD0idXJsKCNwYWludDJfbGluZWFyXzM4OTBfMjE1MzUpIiBkPSJNMTMuMzY2MiAxMi4yNTA3QzEzLjM2NjIgMTIuMTMzNSAxMy4zMTQyIDEyLjAyMjggMTMuMjEgMTEuOTE4N0wxMS44MjMzIDEwLjUxMjRDMTIuMTQ4OCAxMC4xMjE4IDEyLjI5ODUgOS42ODU2MiAxMi4yNzI1IDkuMjAzODVDMTIuMjU5NSA4LjcwOTA2IDEyLjA2NDIgOC4yNzI4NiAxMS42ODY2IDcuODk1MjZMMTEuMjM3MyA3LjQ0NjA0QzExLjEzMzIgNy4zNDE4OCAxMS4wMTYgNy4yODk3OSAxMC44ODU4IDcuMjg5NzlDMTAuNzU1NiA3LjI4OTc5IDEwLjYzODQgNy4zNDE4OCAxMC41MzQyIDcuNDQ2MDRMOC43MTYzMSA5LjI2Mzk2QzguODY2NjcgOS4zNzc0NSA5LjAwMTk4IDkuNTA4OTIgOS4xMjEzMiA5LjY1NjVDOS4zMDkyIDkuODgyMDIgOS40NTAxMSAxMC4xMzU3IDkuNTQ4MTUgMTAuNDA4QzkuNjUyODMgMTAuNjk4OCA5LjcwMDQ4IDExLjAwMDkgOS43MDA0OCAxMS4zMDZDOS43MDA0OCAxMS40NDM4IDkuNjkwNTMgMTEuNTgwNiA5LjY3MDMgMTEuNzE1N0M5LjcwNDA3IDExLjcxOSA5LjczODE0IDExLjcyMTYgOS43NzI1MSAxMS43MjM0QzEwLjI4MDMgMTEuNzM2NCAxMC43MzYgMTEuNTY3MSAxMS4xMzk3IDExLjIxNTZMMTIuNTI2NCAxMi42MDIzQzEyLjYzMDYgMTIuNzA2NCAxMi43NDEyIDEyLjc1ODUgMTIuODU4NCAxMi43NTg1QzEyLjk4ODYgMTIuNzU4NSAxMy4xMDU4IDEyLjcwNjQgMTMuMjEgMTIuNjAyM0MxMy4zMTQyIDEyLjQ5ODEgMTMuMzY2MiAxMi4zODA5IDEzLjM2NjIgMTIuMjUwN1oiLz4mI3hhOzxwYXRoIGZpbGw9InVybCgjcGFpbnQzX2xpbmVhcl8zODkwXzIxNTM1KSIgZD0iTTQuNTI2NDUgMTIuNzk3N0g3LjM1NDExQzcuNTQwNTUgMTIuNzk3NyA3LjcxNjYzIDEyLjc1OTcgNy44ODIzNSAxMi42ODM3QzguMDQ4MDggMTIuNjA3OCA4LjE4OTYzIDEyLjUwNDIgOC4zMDcwMiAxMi4zNzNDOC40MzEzMSAxMi4yMzQ5IDguNTI3OTkgMTIuMDc2MSA4LjU5NzA0IDExLjg5NjZDOC42NjYwOSAxMS43MTAxIDguNzAwNjEgMTEuNTEzMyA4LjcwMDYxIDExLjMwNjJDOC43MDA2MSAxMS4xMDU5IDguNjY5NTQgMTAuOTE5NSA4LjYwNzQgMTAuNzQ2OEM4LjU0NTI1IDEwLjU3NDIgOC40NTg5MyAxMC40MjIzIDguMzQ4NDUgMTAuMjkxMUM4LjIzNzk3IDEwLjE1MyA4LjEwNjc3IDEwLjA0MjUgNy45NTQ4NiA5Ljk1OTY2QzcuODAyOTUgOS44NzY4IDcuNjQwNjcgOS44Mjg0NiA3LjQ2ODA1IDkuODE0NjVDNy4zMjk5NCA5LjUxMDgzIDcuMTMzMTUgOS4yNjkxNSA2Ljg3NzY2IDkuMDg5NjFDNi42MjIxNyA4LjkxMDA4IDYuMzQ1OTYgOC44MjAzMSA2LjA0OTA0IDguODIwMzFDNS44NTU2OSA4LjgyMDMxIDUuNjY5MjUgOC44NTgyOSA1LjQ4OTcyIDguOTM0MjVDNS4zMTcwOSA5LjAxMDIgNS4xNjE3MyA5LjExMzc4IDUuMDIzNjIgOS4yNDQ5OEM0Ljg4NTUyIDkuMzc2MTggNC43NzE1OSA5LjUzNSA0LjY4MTgyIDkuNzIxNDNDNC41OTIwNSA5LjkwMDk3IDQuNTI5OTEgMTAuMDk0MyA0LjQ5NTM4IDEwLjMwMTVDNC4zNDM0NyAxMC4zMDE1IDQuMTk4NDYgMTAuMzM2IDQuMDYwMzYgMTAuNDA1QzMuOTI5MTYgMTAuNDY3MiAzLjgxNTIyIDEwLjU1NyAzLjcxODU1IDEwLjY3NDNDMy42MjE4OCAxMC43ODQ4IDMuNTQyNDcgMTAuOTE2IDMuNDgwMzIgMTEuMDY3OUMzLjQyNTA4IDExLjIxOTkgMy4zOTc0NiAxMS4zNzg3IDMuMzk3NDYgMTEuNTQ0NEMzLjM5NzQ2IDExLjcxNyAzLjQyNTA4IDExLjg3OTMgMy40ODAzMiAxMi4wMzEyQzMuNTQyNDcgMTIuMTgzMSAzLjYyNTMzIDEyLjMxNzggMy43Mjg5MSAxMi40MzUyQzMuODMyNDkgMTIuNTQ1NiAzLjk1MzMzIDEyLjYzNTQgNC4wOTE0MyAxMi43MDQ1QzQuMjI5NTMgMTIuNzY2NiA0LjM3NDU0IDEyLjc5NzcgNC41MjY0NSAxMi43OTc3WiIvPiYjeGE7PC9nPiYjeGE7PGRlZnM+JiN4YTs8bGluZWFyR3JhZGllbnQgZ3JhZGllbnRVbml0cz0idXNlclNwYWNlT25Vc2UiIHkyPSIxNC43NDUzIiB4Mj0iMTMuNjg1NCIgeTE9IjIuMjY4NDUiIHgxPSIxLjQ0ODQ4IiBpZD0icGFpbnQwX2xpbmVhcl8zODkwXzIxNTM1Ij4mI3hhOzxzdG9wIHN0b3AtY29sb3I9IndoaXRlIi8+JiN4YTs8c3RvcCBzdG9wLWNvbG9yPSIjRUFFQ0VFIiBvZmZzZXQ9IjEiLz4mI3hhOzwvbGluZWFyR3JhZGllbnQ+JiN4YTs8bGluZWFyR3JhZGllbnQgZ3JhZGllbnRVbml0cz0idXNlclNwYWNlT25Vc2UiIHkyPSI3Ljc4MjAyIiB4Mj0iOC4zNzA1NSIgeTE9IjMuNjcxODciIHgxPSI0LjI3NzEiIGlkPSJwYWludDFfbGluZWFyXzM4OTBfMjE1MzUiPiYjeGE7PHN0b3Agc3RvcC1jb2xvcj0iIzAxOTVGRiIvPiYjeGE7PHN0b3Agc3RvcC1jb2xvcj0iIzExNDdFOSIgb2Zmc2V0PSIwLjk5MTAyOCIvPiYjeGE7PC9saW5lYXJHcmFkaWVudD4mI3hhOzxsaW5lYXJHcmFkaWVudCBncmFkaWVudFVuaXRzPSJ1c2VyU3BhY2VPblVzZSIgeTI9IjExLjMyMjQiIHgyPSIxMy4xOTI5IiB5MT0iOC4xMDc2MSIgeDE9IjkuNDEzMzUiIGlkPSJwYWludDJfbGluZWFyXzM4OTBfMjE1MzUiPiYjeGE7PHN0b3Agc3RvcC1jb2xvcj0iIzAxOTVGRiIvPiYjeGE7PHN0b3Agc3RvcC1jb2xvcj0iIzExNDdFOSIgb2Zmc2V0PSIwLjk5MTAyOCIvPiYjeGE7PC9saW5lYXJHcmFkaWVudD4mI3hhOzxsaW5lYXJHcmFkaWVudCBncmFkaWVudFVuaXRzPSJ1c2VyU3BhY2VPblVzZSIgeTI9IjEyLjk3OTQiIHgyPSI2Ljg1MDQ4IiB5MT0iOS40MDU0NyIgeDE9IjQuMTgxNSIgaWQ9InBhaW50M19saW5lYXJfMzg5MF8yMTUzNSI+JiN4YTs8c3RvcCBzdG9wLWNvbG9yPSIjMTM0OEZGIi8+JiN4YTs8c3RvcCBzdG9wLWNvbG9yPSIjMDYyMzhEIiBvZmZzZXQ9IjEiLz4mI3hhOzwvbGluZWFyR3JhZGllbnQ+JiN4YTs8Y2xpcFBhdGggaWQ9ImNsaXAwXzM4OTBfMjE1MzUiPiYjeGE7PHJlY3QgdHJhbnNmb3JtPSJ0cmFuc2xhdGUoMy4zOTc0NiAyLjc5NzYxKSIgZmlsbD0id2hpdGUiIGhlaWdodD0iMTAiIHdpZHRoPSIxMCIvPiYjeGE7PC9jbGlwUGF0aD4mI3hhOzwvZGVmcz4mI3hhOzwvc3ZnPg==;fontStyle=0;fontSize=12;fontColor=#1D2D3E" parent="1" vertex="1">
          <mxGeometry x="602.86" y="351.71" width="54.29" height="54.29" as="geometry" />
        </mxCell>
        <mxCell id="i0-r0BhkWRjA8PmNq9u2-57" value="" style="endArrow=blockThin;html=1;rounded=0;strokeColor=#A3A3A3;strokeWidth=2;exitX=1.015;exitY=0.505;exitDx=0;exitDy=0;exitPerimeter=0;endFill=1;endSize=4;startSize=4;entryX=0;entryY=0.5;entryDx=0;entryDy=0;" parent="1" source="i0-r0BhkWRjA8PmNq9u2-55" target="i0-r0BhkWRjA8PmNq9u2-54" edge="1">
          <mxGeometry width="50" height="50" relative="1" as="geometry">
            <mxPoint x="428.14" y="379.95000000000005" as="sourcePoint" />
            <mxPoint x="560.0000000000001" y="360.855" as="targetPoint" />
          </mxGeometry>
        </mxCell>
        <mxCell id="i0-r0BhkWRjA8PmNq9u2-63" style="edgeStyle=orthogonalEdgeStyle;rounded=0;orthogonalLoop=1;jettySize=auto;html=1;exitX=1;exitY=0.5;exitDx=0;exitDy=0;entryX=0;entryY=0.5;entryDx=0;entryDy=0;entryPerimeter=0;strokeWidth=2;endArrow=blockThin;endFill=1;strokeColor=#A3A3A3;startArrow=blockThin;startFill=1;" parent="1" source="i0-r0BhkWRjA8PmNq9u2-20" target="i0-r0BhkWRjA8PmNq9u2-11" edge="1">
          <mxGeometry relative="1" as="geometry" />
        </mxCell>
        <mxCell id="i0-r0BhkWRjA8PmNq9u2-64" style="edgeStyle=orthogonalEdgeStyle;rounded=0;orthogonalLoop=1;jettySize=auto;html=1;exitX=1;exitY=0.5;exitDx=0;exitDy=0;entryX=0;entryY=0.5;entryDx=0;entryDy=0;entryPerimeter=0;strokeWidth=2;strokeColor=#A3A3A3;endArrow=blockThin;endFill=1;startArrow=blockThin;startFill=1;" parent="1" source="i0-r0BhkWRjA8PmNq9u2-21" target="i0-r0BhkWRjA8PmNq9u2-15" edge="1">
          <mxGeometry relative="1" as="geometry">
            <mxPoint x="-81" y="494.47" as="sourcePoint" />
            <mxPoint x="99" y="494.47" as="targetPoint" />
          </mxGeometry>
        </mxCell>
        <mxCell id="u_eiFDLE6t4dj08xCjAs-4" value="" style="group" vertex="1" connectable="0" parent="1">
          <mxGeometry x="520" y="88" width="220" height="192" as="geometry" />
        </mxCell>
        <mxCell id="u_eiFDLE6t4dj08xCjAs-5" value="" style="rounded=1;whiteSpace=wrap;html=1;strokeColor=#0070F2;strokeWidth=1.5;arcSize=14;fillColor=#FFFFFF;perimeterSpacing=0;" vertex="1" parent="u_eiFDLE6t4dj08xCjAs-4">
          <mxGeometry width="219.99999999999997" height="192" as="geometry" />
        </mxCell>
        <mxCell id="u_eiFDLE6t4dj08xCjAs-6" value="" style="shape=image;verticalLabelPosition=bottom;labelBackgroundColor=default;verticalAlign=top;aspect=fixed;imageAspect=0;image=data:image/svg+xml,PHN2ZyB4bWxucz0iaHR0cDovL3d3dy53My5vcmcvMjAwMC9zdmciIGZpbGw9Im5vbmUiIHZpZXdCb3g9IjAgMCAxNyAxMiIgaGVpZ2h0PSIxMiIgd2lkdGg9IjE3Ij4mI3hhOzxwYXRoIGZpbGw9InVybCgjcGFpbnQwX2xpbmVhcl83MjRfMTQpIiBkPSJNMTIuMzQ2MSAxMS45OTc0SDMuODE0ODVDMy4zNTY1MiAxMS45OTc0IDIuOTE5MDIgMTEuOTAzNiAyLjUwMjM1IDExLjcxNjJDMi4wODU2OCAxMS41MDc4IDEuNzIxMSAxMS4yMzcgMS40MDg2IDEwLjkwMzZDMS4wOTYxIDEwLjU0OTUgMC44NDYxIDEwLjE0MzIgMC42NTg2IDkuNjg0OTFDMC40OTE5MyA5LjIyNjYxIDAuNDA4NiA4LjczNzAxIDAuNDA4NiA4LjIxNjIxQzAuNDA4NiA3LjcxNjE2IDAuNDkxOTMgNy4yMzY5OSAwLjY1ODYgNi43Nzg2NkMwLjg0NjEgNi4zMjAzMyAxLjA4NTY4IDUuOTI0NDkgMS4zNzczNSA1LjU5MTE2QzEuNjY5MDIgNS4yMzY5OSAyLjAxMjc3IDQuOTY2MTYgMi40MDg2IDQuNzc4NjZDMi44MjUyNyA0LjU3MDMzIDMuMjYyNzcgNC40NjYxNiAzLjcyMTEgNC40NjYxNkMzLjgyNTI3IDMuODQxMTYgNC4wMTI3NyAzLjI1NzgzIDQuMjgzNiAyLjcxNjE2QzQuNTU0NDMgMi4xNTM2NiA0Ljg5ODE4IDEuNjc0NDkgNS4zMTQ4NSAxLjI3ODY2QzUuNzMxNTIgMC44ODI4MzQgNi4yMDAyNyAwLjU3MDMzNCA2LjcyMTEgMC4zNDExNjRDNy4yNjI3NyAwLjExMTk5NCA3LjgyNTI3IC0wLjAwMjU4NjM2IDguNDA4NiAtMC4wMDI1ODYzNkM5LjMwNDQzIC0wLjAwMjU4NjM2IDEwLjEzNzcgMC4yNjgyNDQgMTAuOTA4NiAwLjgwOTkxNEMxMS42Nzk0IDEuMzUxNTggMTIuMjczMSAyLjA4MDc0IDEyLjY4OTggMi45OTc0MUMxMy4yMTA2IDMuMDM5MDggMTMuNzAwMiAzLjE4NDkxIDE0LjE1ODYgMy40MzQ5MUMxNC42MTY5IDMuNjg0OTEgMTUuMDEyOCA0LjAxODI0IDE1LjM0NjEgNC40MzQ5MUMxNS42Nzk1IDQuODMwNzQgMTUuOTM5OCA1LjI4OTA4IDE2LjEyNzMgNS44MDk5MUMxNi4zMTQ4IDYuMzMwNzQgMTYuNDA4NiA2Ljg5MzI0IDE2LjQwODYgNy40OTc0MUMxNi40MDg2IDguMTIyNDEgMTYuMzA0NSA4LjcxNjIxIDE2LjA5NjEgOS4yNzg2MUMxNS44ODc4IDkuODIwMzEgMTUuNTk2MSAxMC4yOTk1IDE1LjIyMTEgMTAuNzE2MkMxNC44NjcgMTEuMTEyIDE0LjQzOTggMTEuNDI0NSAxMy45Mzk4IDExLjY1MzZDMTMuNDM5OCAxMS44ODI4IDEyLjkwODcgMTEuOTk3NCAxMi4zNDYxIDExLjk5NzRaTTMuODE0ODUgNi4wNTk5MUMzLjMxNDg1IDYuMDU5OTEgMi44ODc3NyA2LjI2ODI0IDIuNTMzNiA2LjY4NDkxQzIuMTc5NDMgNy4xMDE1OCAyLjAwMjM1IDcuNjExOTkgMi4wMDIzNSA4LjIxNjIxQzIuMDAyMzUgOC44MjAzMSAyLjE3OTQzIDkuMzQxMjEgMi41MzM2IDkuNzc4NjFDMi44ODc3NyAxMC4xOTUzIDMuMzE0ODUgMTAuNDAzNiAzLjgxNDg1IDEwLjQwMzZIMTIuMzQ2MUMxMy4wMzM3IDEwLjQwMzYgMTMuNjE3IDEwLjEyMjQgMTQuMDk2MSA5LjU1OTkxQzE0LjU3NTMgOC45OTc0MSAxNC44MTQ4IDguMzA5OTEgMTQuODE0OCA3LjQ5NzQxQzE0LjgxNDggNi42NjQwOCAxNC41NzUzIDUuOTY2MTYgMTQuMDk2MSA1LjQwMzY2QzEzLjYxNyA0Ljg0MTE2IDEzLjAzMzcgNC41NTk5MSAxMi4zNDYxIDQuNTU5OTFIMTIuMTI3M0MxMS43NzMxIDQuNTU5OTEgMTEuNTIzMSA0LjM4MjgzIDExLjM3NzMgNC4wMjg2NkMxMS4xMjczIDMuMjk5NDkgMTAuNzMxNSAyLjcxNjE2IDEwLjE4OTggMi4yNzg2NkM5LjY0ODE1IDEuODIwMzMgOS4wNTQ0MyAxLjU5MTE2IDguNDA4NiAxLjU5MTE2QzcuOTcxMSAxLjU5MTE2IDcuNTY0ODUgMS42OTUzMyA3LjE4OTg1IDEuOTAzNjZDNi44MTQ4NSAyLjA5MTE2IDYuNDgxNTIgMi4zNTE1OCA2LjE4OTg1IDIuNjg0OTFDNS45MTkwMiAyLjk5NzQxIDUuNzAwMjcgMy4zODI4MyA1LjUzMzYgMy44NDExNkM1LjM2NjkzIDQuMjc4NjYgNS4yODM2IDQuNzQ3NDEgNS4yODM2IDUuMjQ3NDFDNS4yODM2IDUuNDc2NTggNS4yMDAyNyA1LjY3NDQ5IDUuMDMzNiA1Ljg0MTE2QzQuODg3NzcgNS45ODY5OSA0LjcwMDI3IDYuMDU5OTEgNC40NzExIDYuMDU5OTFIMy44MTQ4NVoiLz4mI3hhOzxkZWZzPiYjeGE7PGxpbmVhckdyYWRpZW50IGdyYWRpZW50VW5pdHM9InVzZXJTcGFjZU9uVXNlIiB5Mj0iMTAuMzM3MyIgeDI9IjE0LjI2MDIiIHkxPSIxLjEyNjIzIiB4MT0iMi40NzY0NiIgaWQ9InBhaW50MF9saW5lYXJfNzI0XzE0Ij4mI3hhOzxzdG9wIHN0b3AtY29sb3I9IiMyMzk1RkYiLz4mI3hhOzxzdG9wIHN0b3AtY29sb3I9IiMwMDU3RDIiIG9mZnNldD0iMSIvPiYjeGE7PC9saW5lYXJHcmFkaWVudD4mI3hhOzwvZGVmcz4mI3hhOzwvc3ZnPg==;strokeWidth=1.5;" vertex="1" parent="u_eiFDLE6t4dj08xCjAs-4">
          <mxGeometry x="15.477386934673365" y="22.087314285714285" width="34.52" height="24.36" as="geometry" />
        </mxCell>
        <mxCell id="u_eiFDLE6t4dj08xCjAs-7" value="&lt;font face=&quot;arial&quot;&gt;&lt;span style=&quot;font-size: 16px;&quot;&gt;&lt;b&gt;S/4 HANA&lt;/b&gt;&lt;/span&gt;&lt;/font&gt;" style="text;html=1;align=left;verticalAlign=middle;resizable=0;points=[];autosize=1;strokeColor=none;fillColor=none;fontSize=12;fontColor=#1d2d3e;fontFamily=Helvetica;" vertex="1" parent="u_eiFDLE6t4dj08xCjAs-4">
          <mxGeometry x="66.33165829145727" y="20.61632653061225" width="100" height="30" as="geometry" />
        </mxCell>
        <mxCell id="u_eiFDLE6t4dj08xCjAs-10" value="Facture comptabilisée" style="rounded=1;whiteSpace=wrap;html=1;fillColor=#e1d5e7;strokeColor=#9673a6;" vertex="1" parent="u_eiFDLE6t4dj08xCjAs-4">
          <mxGeometry x="15" y="71.45714285714286" width="190" height="27.42857142857143" as="geometry" />
        </mxCell>
        <mxCell id="u_eiFDLE6t4dj08xCjAs-9" value="" style="shape=image;verticalLabelPosition=bottom;verticalAlign=top;imageAspect=0;aspect=fixed;image=data:image/svg+xml,PHN2ZyB4bWxucz0iaHR0cDovL3d3dy53My5vcmcvMjAwMC9zdmciIGZpbGw9Im5vbmUiIHZpZXdCb3g9IjAgMCAyOSAyOCIgaGVpZ2h0PSIyOCIgd2lkdGg9IjI5Ij4mI3hhOzxnIGNsaXAtcGF0aD0idXJsKCNjbGlwMF84NzBfMjM0KSI+JiN4YTs8cGF0aCBmaWxsPSJ1cmwoI3BhaW50MF9saW5lYXJfODcwXzIzNCkiIGQ9Ik0wLjg5NzQ2MSAxMy45NzIyQzAuODk3NDYxIDEyLjA0MjQgMS4yNjg1NyAxMC4yNDI1IDIuMDEwNzggOC41NzI1NkMyLjc1Mjk5IDYuODY1NDcgMy43NTQ5OCA1LjM4MTA1IDUuMDE2NzUgNC4xMTkyOEM2LjI3ODUxIDIuODU3NTIgNy43NjI5MyAxLjg1NTUzIDkuNDcwMDMgMS4xMTMzMkMxMS4xNzcxIDAuMzcxMTA3IDEyLjk5NTUgMCAxNC45MjUzIDBDMTYuODU1IDAgMTguNjU0OSAwLjM3MTEwNyAyMC4zMjQ5IDEuMTEzMzJDMjIuMDMyIDEuODU1NTMgMjMuNTE2NCAyLjg1NzUyIDI0Ljc3ODIgNC4xMTkyOEMyNi4wMzk5IDUuMzgxMDUgMjcuMDQxOSA2Ljg2NTQ3IDI3Ljc4NDEgOC41NzI1NkMyOC41MjY0IDEwLjI0MjUgMjguODk3NSAxMi4wNDI0IDI4Ljg5NzUgMTMuOTcyMkMyOC44OTc1IDE1LjkwMTkgMjguNTI2NCAxNy43MjAzIDI3Ljc4NDEgMTkuNDI3NEMyNy4wNDE5IDIxLjEzNDUgMjYuMDM5OSAyMi42MTkgMjQuNzc4MiAyMy44ODA3QzIzLjUxNjQgMjUuMTQyNSAyMi4wMzIgMjYuMTQ0NSAyMC4zMjQ5IDI2Ljg4NjdDMTguNjU0OSAyNy42Mjg5IDE2Ljg1NSAyOCAxNC45MjUzIDI4QzEyLjk5NTUgMjggMTEuMTc3MSAyNy42Mjg5IDkuNDcwMDMgMjYuODg2N0M3Ljc2MjkzIDI2LjE0NDUgNi4yNzg1MSAyNS4xNDI1IDUuMDE2NzUgMjMuODgwN0MzLjc1NDk4IDIyLjYxOSAyLjc1Mjk5IDIxLjEzNDUgMi4wMTA3OCAxOS40Mjc0QzEuMjY4NTcgMTcuNzIwMyAwLjg5NzQ2MSAxNS45MDE5IDAuODk3NDYxIDEzLjk3MjJaTTE3LjcwODYgMTguMjAyOEMxOC44OTYxIDE4LjIwMjggMTkuOTkwOSAxOC40ODExIDIwLjk5MjkgMTkuMDM3OEMyMS45OTQ5IDE5LjU1NzMgMjIuODExMyAyMC4yODEgMjMuNDQyMiAyMS4yMDg3QzI0LjI5NTcgMjAuMjQzOSAyNC45NDUyIDE5LjE0OTEgMjUuMzkwNSAxNy45MjQ1QzI1Ljg3MjkgMTYuNjk5OCAyNi4xMTQyIDE1LjM4MjQgMjYuMTE0MiAxMy45NzIyQzI2LjExNDIgMTIuNDEzNSAyNS44MTczIDEwLjk2NjIgMjUuMjIzNSA5LjYzMDIyQzI0LjYyOTcgOC4yNTcxMiAyMy44MzE5IDcuMDY5NTggMjIuODI5OSA2LjA2NzU5QzIxLjgyNzkgNS4wNjU2MSAyMC42NDAzIDQuMjY3NzMgMTkuMjY3MiAzLjY3Mzk2QzE3LjkzMTMgMy4wODAxOSAxNi40ODM5IDIuNzgzMyAxNC45MjUzIDIuNzgzM0MxMy4zNjY2IDIuNzgzMyAxMS45MDA4IDMuMDgwMTkgMTAuNTI3NyAzLjY3Mzk2QzkuMTkxNyA0LjI2NzczIDguMDA0MTUgNS4wNjU2MSA2Ljk2NTA2IDYuMDY3NTlDNS45NjMwNyA3LjA2OTU4IDUuMTY1MTkgOC4yNTcxMiA0LjU3MTQyIDkuNjMwMjJDMy45Nzc2NSAxMC45NjYyIDMuNjgwNzYgMTIuNDEzNSAzLjY4MDc2IDEzLjk3MjJDMy42ODA3NiAxNS4zODI0IDMuOTAzNDMgMTYuNjk5OCA0LjM0ODc1IDE3LjkyNDVDNC44MzExOSAxOS4xNDkxIDUuNDk5MTggMjAuMjQzOSA2LjM1MjczIDIxLjIwODdDNi45ODM2MSAyMC4yODEgNy44MDAwNSAxOS41NTczIDguODAyMDMgMTkuMDM3OEM5LjgwNDAyIDE4LjQ4MTEgMTAuODk4OCAxOC4yMDI4IDEyLjA4NjMgMTguMjAyOEgxNy43MDg2Wk0yMC40OTE5IDExLjE4ODlDMjAuNDkxOSAxMS45NjgyIDIwLjM0MzUgMTIuNzEwNCAyMC4wNDY2IDEzLjQxNTVDMTkuNzQ5NyAxNC4wODM1IDE5LjM0MTUgMTQuNjc3MyAxOC44MjE5IDE1LjE5NjhDMTguMzM5NSAxNS42NzkzIDE3Ljc2NDMgMTYuMDY4OSAxNy4wOTYzIDE2LjM2NThDMTYuNDI4MyAxNi42NjI3IDE1LjcwNDYgMTYuODExMSAxNC45MjUzIDE2LjgxMTFDMTQuMTQ2IDE2LjgxMTEgMTMuNDAzOCAxNi42NjI3IDEyLjY5ODcgMTYuMzY1OEMxMi4wMzA3IDE2LjA2ODkgMTEuNDM2OSAxNS42NzkzIDEwLjkxNzMgMTUuMTk2OEMxMC40MzQ5IDE0LjY3NzMgMTAuMDQ1MiAxNC4wODM1IDkuNzQ4MzYgMTMuNDE1NUM5LjQ1MTQ3IDEyLjcxMDQgOS4zMDMwMyAxMS45NjgyIDkuMzAzMDMgMTEuMTg4OUM5LjMwMzAzIDEwLjQwOTUgOS40NTE0NyA5LjY4NTg4IDkuNzQ4MzYgOS4wMTc4OUMxMC4wNDUyIDguMzQ5OSAxMC40MzQ5IDcuNzU2MTMgMTAuOTE3MyA3LjIzNjU4QzExLjQzNjkgNi43MTcwMyAxMi4wMzA3IDYuMzA4ODEgMTIuNjk4NyA2LjAxMTkzQzEzLjQwMzggNS43MTUwNCAxNC4xNDYgNS41NjY2IDE0LjkyNTMgNS41NjY2QzE1LjcwNDYgNS41NjY2IDE2LjQyODMgNS43MTUwNCAxNy4wOTYzIDYuMDExOTNDMTcuNzY0MyA2LjMwODgxIDE4LjMzOTUgNi43MTcwMyAxOC44MjE5IDcuMjM2NThDMTkuMzQxNSA3Ljc1NjEzIDE5Ljc0OTcgOC4zNDk5IDIwLjA0NjYgOS4wMTc4OUMyMC4zNDM1IDkuNjg1ODggMjAuNDkxOSAxMC40MDk1IDIwLjQ5MTkgMTEuMTg4OVpNMTcuNzA4NiAxMS4xODg5QzE3LjcwODYgMTAuNDA5NSAxNy40MzAzIDkuNzYwMTEgMTYuODczNiA5LjI0MDU2QzE2LjMxNjkgOC42ODM5IDE1LjY2NzUgOC40MDU1NyAxNC45MjUzIDguNDA1NTdDMTQuMTQ2IDguNDA1NTcgMTMuNDc4IDguNjgzOSAxMi45MjEzIDkuMjQwNTZDMTIuMzY0NyA5Ljc2MDExIDEyLjA4NjMgMTAuNDA5NSAxMi4wODYzIDExLjE4ODlDMTIuMDg2MyAxMS45NjgyIDEyLjM2NDcgMTIuNjM2MiAxMi45MjEzIDEzLjE5MjhDMTMuNDc4IDEzLjcxMjQgMTQuMTQ2IDEzLjk3MjIgMTQuOTI1MyAxMy45NzIyQzE1LjY2NzUgMTMuOTcyMiAxNi4zMTY5IDEzLjcxMjQgMTYuODczNiAxMy4xOTI4QzE3LjQzMDMgMTIuNjM2MiAxNy43MDg2IDExLjk2ODIgMTcuNzA4NiAxMS4xODg5Wk04LjQ2ODA0IDIzLjE1NzFDOS4zNTg2OSAyMy43ODc5IDEwLjM0MjEgMjQuMjg4OSAxMS40MTgzIDI0LjY2QzEyLjUzMTcgMjUuMDMxMSAxMy43MDA2IDI1LjIxNjcgMTQuOTI1MyAyNS4yMTY3QzE2LjExMjggMjUuMjE2NyAxNy4yNDQ3IDI1LjAzMTEgMTguMzIwOSAyNC42NkMxOS40MzQyIDI0LjI4ODkgMjAuNDM2MiAyMy43ODc5IDIxLjMyNjkgMjMuMTU3MUMyMC45NTU4IDIyLjQ4OTEgMjAuNDM2MiAyMS45Njk1IDE5Ljc2ODIgMjEuNTk4NEMxOS4xMzc0IDIxLjE5MDIgMTguNDUwOCAyMC45ODYxIDE3LjcwODYgMjAuOTg2MUgxMi4wODYzQzExLjM0NDEgMjAuOTg2MSAxMC42MzkgMjEuMTkwMiA5Ljk3MTAyIDIxLjU5ODRDOS4zNDAxNCAyMS45Njk1IDguODM5MTQgMjIuNDg5MSA4LjQ2ODA0IDIzLjE1NzFaIi8+JiN4YTs8L2c+JiN4YTs8ZGVmcz4mI3hhOzxsaW5lYXJHcmFkaWVudCBncmFkaWVudFVuaXRzPSJ1c2VyU3BhY2VPblVzZSIgeTI9IjE3LjEyODUiIHgyPSIyOS4yNDAyIiB5MT0iMi42MzM5IiB4MT0iNC41MTYyIiBpZD0icGFpbnQwX2xpbmVhcl84NzBfMjM0Ij4mI3hhOzxzdG9wIHN0b3AtY29sb3I9IiMyMzk1RkYiLz4mI3hhOzxzdG9wIHN0b3AtY29sb3I9IiMwMDU3RDIiIG9mZnNldD0iMSIvPiYjeGE7PC9saW5lYXJHcmFkaWVudD4mI3hhOzxjbGlwUGF0aCBpZD0iY2xpcDBfODcwXzIzNCI+JiN4YTs8cmVjdCB0cmFuc2Zvcm09InRyYW5zbGF0ZSgwLjg5NzQ2MSkiIGZpbGw9IndoaXRlIiBoZWlnaHQ9IjI4IiB3aWR0aD0iMjgiLz4mI3hhOzwvY2xpcFBhdGg+JiN4YTs8L2RlZnM+JiN4YTs8L3N2Zz4=" vertex="1" parent="1">
          <mxGeometry x="860" y="188.45999999999998" width="41.43" height="40" as="geometry" />
        </mxCell>
        <mxCell id="u_eiFDLE6t4dj08xCjAs-11" value="Facture au statut pré-enregistré" style="rounded=1;whiteSpace=wrap;html=1;fillColor=#e1d5e7;strokeColor=#9673a6;" vertex="1" parent="1">
          <mxGeometry x="535" y="228.45714285714286" width="190" height="27.42857142857143" as="geometry" />
        </mxCell>
        <mxCell id="u_eiFDLE6t4dj08xCjAs-12" value="" style="endArrow=blockThin;html=1;strokeColor=#CB00DC;bendable=1;rounded=0;endFill=1;endSize=4;strokeWidth=1.5;startSize=4;startArrow=none;startFill=0;entryX=0.5;entryY=1;entryDx=0;entryDy=0;exitX=0.5;exitY=0;exitDx=0;exitDy=0;" edge="1" parent="1" source="u_eiFDLE6t4dj08xCjAs-11" target="u_eiFDLE6t4dj08xCjAs-10">
          <mxGeometry width="50" height="50" relative="1" as="geometry">
            <mxPoint x="930" y="369.5" as="sourcePoint" />
            <mxPoint x="1050" y="369.5" as="targetPoint" />
            <Array as="points" />
          </mxGeometry>
        </mxCell>
        <mxCell id="u_eiFDLE6t4dj08xCjAs-15" value="" style="endArrow=blockThin;html=1;strokeColor=#CB00DC;bendable=1;rounded=0;endFill=1;endSize=4;strokeWidth=1.5;startSize=4;startArrow=none;startFill=0;entryX=0;entryY=0.5;entryDx=0;entryDy=0;" edge="1" parent="1" target="u_eiFDLE6t4dj08xCjAs-9">
          <mxGeometry width="50" height="50" relative="1" as="geometry">
            <mxPoint x="630" y="209" as="sourcePoint" />
            <mxPoint x="823" y="209.46000000000004" as="targetPoint" />
            <Array as="points" />
          </mxGeometry>
        </mxCell>
        <mxCell id="u_eiFDLE6t4dj08xCjAs-17" value="Contrôle et enrichissement" style="edgeLabel;html=1;align=center;verticalAlign=middle;resizable=0;points=[];fontStyle=1" vertex="1" connectable="0" parent="u_eiFDLE6t4dj08xCjAs-15">
          <mxGeometry x="-0.2912" y="3" relative="1" as="geometry">
            <mxPoint as="offset" />
          </mxGeometry>
        </mxCell>
        <mxCell id="u_eiFDLE6t4dj08xCjAs-18" value="" style="verticalLabelPosition=bottom;verticalAlign=top;html=1;shape=mxgraph.basic.tick;fillColor=#97D077;strokeColor=#82b366;" vertex="1" parent="1">
          <mxGeometry x="810" y="188.46" width="25" height="29.41" as="geometry" />
        </mxCell>
        <mxCell id="u_eiFDLE6t4dj08xCjAs-19" value="" style="endArrow=blockThin;html=1;rounded=0;strokeColor=#A3A3A3;strokeWidth=2;exitX=0.5;exitY=0;exitDx=0;exitDy=0;endFill=1;endSize=4;startSize=4;entryX=0.5;entryY=1;entryDx=0;entryDy=0;" edge="1" parent="1" source="i0-r0BhkWRjA8PmNq9u2-54" target="u_eiFDLE6t4dj08xCjAs-5">
          <mxGeometry width="50" height="50" relative="1" as="geometry">
            <mxPoint x="436" y="390" as="sourcePoint" />
            <mxPoint x="617" y="389" as="targetPoint" />
          </mxGeometry>
        </mxCell>
        <mxCell id="u_eiFDLE6t4dj08xCjAs-20" value="&lt;b&gt;API Standard&lt;/b&gt;" style="edgeLabel;html=1;align=center;verticalAlign=middle;resizable=0;points=[];" vertex="1" connectable="0" parent="u_eiFDLE6t4dj08xCjAs-19">
          <mxGeometry x="-0.054" y="2" relative="1" as="geometry">
            <mxPoint as="offset" />
          </mxGeometry>
        </mxCell>
        <mxCell id="u_eiFDLE6t4dj08xCjAs-21" value="" style="shape=image;verticalLabelPosition=bottom;verticalAlign=top;imageAspect=0;aspect=fixed;image=data:image/svg+xml,PHN2ZyB4bWxucz0iaHR0cDovL3d3dy53My5vcmcvMjAwMC9zdmciIGZpbGw9Im5vbmUiIHZpZXdCb3g9IjAgMCAyOSAyOCIgaGVpZ2h0PSIyOCIgd2lkdGg9IjI5Ij4mI3hhOzxnIGNsaXAtcGF0aD0idXJsKCNjbGlwMF84NzBfMjM0KSI+JiN4YTs8cGF0aCBmaWxsPSJ1cmwoI3BhaW50MF9saW5lYXJfODcwXzIzNCkiIGQ9Ik0wLjg5NzQ2MSAxMy45NzIyQzAuODk3NDYxIDEyLjA0MjQgMS4yNjg1NyAxMC4yNDI1IDIuMDEwNzggOC41NzI1NkMyLjc1Mjk5IDYuODY1NDcgMy43NTQ5OCA1LjM4MTA1IDUuMDE2NzUgNC4xMTkyOEM2LjI3ODUxIDIuODU3NTIgNy43NjI5MyAxLjg1NTUzIDkuNDcwMDMgMS4xMTMzMkMxMS4xNzcxIDAuMzcxMTA3IDEyLjk5NTUgMCAxNC45MjUzIDBDMTYuODU1IDAgMTguNjU0OSAwLjM3MTEwNyAyMC4zMjQ5IDEuMTEzMzJDMjIuMDMyIDEuODU1NTMgMjMuNTE2NCAyLjg1NzUyIDI0Ljc3ODIgNC4xMTkyOEMyNi4wMzk5IDUuMzgxMDUgMjcuMDQxOSA2Ljg2NTQ3IDI3Ljc4NDEgOC41NzI1NkMyOC41MjY0IDEwLjI0MjUgMjguODk3NSAxMi4wNDI0IDI4Ljg5NzUgMTMuOTcyMkMyOC44OTc1IDE1LjkwMTkgMjguNTI2NCAxNy43MjAzIDI3Ljc4NDEgMTkuNDI3NEMyNy4wNDE5IDIxLjEzNDUgMjYuMDM5OSAyMi42MTkgMjQuNzc4MiAyMy44ODA3QzIzLjUxNjQgMjUuMTQyNSAyMi4wMzIgMjYuMTQ0NSAyMC4zMjQ5IDI2Ljg4NjdDMTguNjU0OSAyNy42Mjg5IDE2Ljg1NSAyOCAxNC45MjUzIDI4QzEyLjk5NTUgMjggMTEuMTc3MSAyNy42Mjg5IDkuNDcwMDMgMjYuODg2N0M3Ljc2MjkzIDI2LjE0NDUgNi4yNzg1MSAyNS4xNDI1IDUuMDE2NzUgMjMuODgwN0MzLjc1NDk4IDIyLjYxOSAyLjc1Mjk5IDIxLjEzNDUgMi4wMTA3OCAxOS40Mjc0QzEuMjY4NTcgMTcuNzIwMyAwLjg5NzQ2MSAxNS45MDE5IDAuODk3NDYxIDEzLjk3MjJaTTE3LjcwODYgMTguMjAyOEMxOC44OTYxIDE4LjIwMjggMTkuOTkwOSAxOC40ODExIDIwLjk5MjkgMTkuMDM3OEMyMS45OTQ5IDE5LjU1NzMgMjIuODExMyAyMC4yODEgMjMuNDQyMiAyMS4yMDg3QzI0LjI5NTcgMjAuMjQzOSAyNC45NDUyIDE5LjE0OTEgMjUuMzkwNSAxNy45MjQ1QzI1Ljg3MjkgMTYuNjk5OCAyNi4xMTQyIDE1LjM4MjQgMjYuMTE0MiAxMy45NzIyQzI2LjExNDIgMTIuNDEzNSAyNS44MTczIDEwLjk2NjIgMjUuMjIzNSA5LjYzMDIyQzI0LjYyOTcgOC4yNTcxMiAyMy44MzE5IDcuMDY5NTggMjIuODI5OSA2LjA2NzU5QzIxLjgyNzkgNS4wNjU2MSAyMC42NDAzIDQuMjY3NzMgMTkuMjY3MiAzLjY3Mzk2QzE3LjkzMTMgMy4wODAxOSAxNi40ODM5IDIuNzgzMyAxNC45MjUzIDIuNzgzM0MxMy4zNjY2IDIuNzgzMyAxMS45MDA4IDMuMDgwMTkgMTAuNTI3NyAzLjY3Mzk2QzkuMTkxNyA0LjI2NzczIDguMDA0MTUgNS4wNjU2MSA2Ljk2NTA2IDYuMDY3NTlDNS45NjMwNyA3LjA2OTU4IDUuMTY1MTkgOC4yNTcxMiA0LjU3MTQyIDkuNjMwMjJDMy45Nzc2NSAxMC45NjYyIDMuNjgwNzYgMTIuNDEzNSAzLjY4MDc2IDEzLjk3MjJDMy42ODA3NiAxNS4zODI0IDMuOTAzNDMgMTYuNjk5OCA0LjM0ODc1IDE3LjkyNDVDNC44MzExOSAxOS4xNDkxIDUuNDk5MTggMjAuMjQzOSA2LjM1MjczIDIxLjIwODdDNi45ODM2MSAyMC4yODEgNy44MDAwNSAxOS41NTczIDguODAyMDMgMTkuMDM3OEM5LjgwNDAyIDE4LjQ4MTEgMTAuODk4OCAxOC4yMDI4IDEyLjA4NjMgMTguMjAyOEgxNy43MDg2Wk0yMC40OTE5IDExLjE4ODlDMjAuNDkxOSAxMS45NjgyIDIwLjM0MzUgMTIuNzEwNCAyMC4wNDY2IDEzLjQxNTVDMTkuNzQ5NyAxNC4wODM1IDE5LjM0MTUgMTQuNjc3MyAxOC44MjE5IDE1LjE5NjhDMTguMzM5NSAxNS42NzkzIDE3Ljc2NDMgMTYuMDY4OSAxNy4wOTYzIDE2LjM2NThDMTYuNDI4MyAxNi42NjI3IDE1LjcwNDYgMTYuODExMSAxNC45MjUzIDE2LjgxMTFDMTQuMTQ2IDE2LjgxMTEgMTMuNDAzOCAxNi42NjI3IDEyLjY5ODcgMTYuMzY1OEMxMi4wMzA3IDE2LjA2ODkgMTEuNDM2OSAxNS42NzkzIDEwLjkxNzMgMTUuMTk2OEMxMC40MzQ5IDE0LjY3NzMgMTAuMDQ1MiAxNC4wODM1IDkuNzQ4MzYgMTMuNDE1NUM5LjQ1MTQ3IDEyLjcxMDQgOS4zMDMwMyAxMS45NjgyIDkuMzAzMDMgMTEuMTg4OUM5LjMwMzAzIDEwLjQwOTUgOS40NTE0NyA5LjY4NTg4IDkuNzQ4MzYgOS4wMTc4OUMxMC4wNDUyIDguMzQ5OSAxMC40MzQ5IDcuNzU2MTMgMTAuOTE3MyA3LjIzNjU4QzExLjQzNjkgNi43MTcwMyAxMi4wMzA3IDYuMzA4ODEgMTIuNjk4NyA2LjAxMTkzQzEzLjQwMzggNS43MTUwNCAxNC4xNDYgNS41NjY2IDE0LjkyNTMgNS41NjY2QzE1LjcwNDYgNS41NjY2IDE2LjQyODMgNS43MTUwNCAxNy4wOTYzIDYuMDExOTNDMTcuNzY0MyA2LjMwODgxIDE4LjMzOTUgNi43MTcwMyAxOC44MjE5IDcuMjM2NThDMTkuMzQxNSA3Ljc1NjEzIDE5Ljc0OTcgOC4zNDk5IDIwLjA0NjYgOS4wMTc4OUMyMC4zNDM1IDkuNjg1ODggMjAuNDkxOSAxMC40MDk1IDIwLjQ5MTkgMTEuMTg4OVpNMTcuNzA4NiAxMS4xODg5QzE3LjcwODYgMTAuNDA5NSAxNy40MzAzIDkuNzYwMTEgMTYuODczNiA5LjI0MDU2QzE2LjMxNjkgOC42ODM5IDE1LjY2NzUgOC40MDU1NyAxNC45MjUzIDguNDA1NTdDMTQuMTQ2IDguNDA1NTcgMTMuNDc4IDguNjgzOSAxMi45MjEzIDkuMjQwNTZDMTIuMzY0NyA5Ljc2MDExIDEyLjA4NjMgMTAuNDA5NSAxMi4wODYzIDExLjE4ODlDMTIuMDg2MyAxMS45NjgyIDEyLjM2NDcgMTIuNjM2MiAxMi45MjEzIDEzLjE5MjhDMTMuNDc4IDEzLjcxMjQgMTQuMTQ2IDEzLjk3MjIgMTQuOTI1MyAxMy45NzIyQzE1LjY2NzUgMTMuOTcyMiAxNi4zMTY5IDEzLjcxMjQgMTYuODczNiAxMy4xOTI4QzE3LjQzMDMgMTIuNjM2MiAxNy43MDg2IDExLjk2ODIgMTcuNzA4NiAxMS4xODg5Wk04LjQ2ODA0IDIzLjE1NzFDOS4zNTg2OSAyMy43ODc5IDEwLjM0MjEgMjQuMjg4OSAxMS40MTgzIDI0LjY2QzEyLjUzMTcgMjUuMDMxMSAxMy43MDA2IDI1LjIxNjcgMTQuOTI1MyAyNS4yMTY3QzE2LjExMjggMjUuMjE2NyAxNy4yNDQ3IDI1LjAzMTEgMTguMzIwOSAyNC42NkMxOS40MzQyIDI0LjI4ODkgMjAuNDM2MiAyMy43ODc5IDIxLjMyNjkgMjMuMTU3MUMyMC45NTU4IDIyLjQ4OTEgMjAuNDM2MiAyMS45Njk1IDE5Ljc2ODIgMjEuNTk4NEMxOS4xMzc0IDIxLjE5MDIgMTguNDUwOCAyMC45ODYxIDE3LjcwODYgMjAuOTg2MUgxMi4wODYzQzExLjM0NDEgMjAuOTg2MSAxMC42MzkgMjEuMTkwMiA5Ljk3MTAyIDIxLjU5ODRDOS4zNDAxNCAyMS45Njk1IDguODM5MTQgMjIuNDg5MSA4LjQ2ODA0IDIzLjE1NzFaIi8+JiN4YTs8L2c+JiN4YTs8ZGVmcz4mI3hhOzxsaW5lYXJHcmFkaWVudCBncmFkaWVudFVuaXRzPSJ1c2VyU3BhY2VPblVzZSIgeTI9IjE3LjEyODUiIHgyPSIyOS4yNDAyIiB5MT0iMi42MzM5IiB4MT0iNC41MTYyIiBpZD0icGFpbnQwX2xpbmVhcl84NzBfMjM0Ij4mI3hhOzxzdG9wIHN0b3AtY29sb3I9IiMyMzk1RkYiLz4mI3hhOzxzdG9wIHN0b3AtY29sb3I9IiMwMDU3RDIiIG9mZnNldD0iMSIvPiYjeGE7PC9saW5lYXJHcmFkaWVudD4mI3hhOzxjbGlwUGF0aCBpZD0iY2xpcDBfODcwXzIzNCI+JiN4YTs8cmVjdCB0cmFuc2Zvcm09InRyYW5zbGF0ZSgwLjg5NzQ2MSkiIGZpbGw9IndoaXRlIiBoZWlnaHQ9IjI4IiB3aWR0aD0iMjgiLz4mI3hhOzwvY2xpcFBhdGg+JiN4YTs8L2RlZnM+JiN4YTs8L3N2Zz4=" vertex="1" parent="1">
          <mxGeometry x="840" y="539" width="41.43" height="40" as="geometry" />
        </mxCell>
        <mxCell id="u_eiFDLE6t4dj08xCjAs-25" value="" style="shape=image;verticalLabelPosition=bottom;labelBackgroundColor=default;verticalAlign=top;aspect=fixed;imageAspect=0;image=data:image/png,iVBORw0KGgoAAAANSUhEUgAAAQAAAADHCAYAAAD26I3eAAAAAXNSR0IArs4c6QAAAARnQU1BAACxjwv8YQUAAAAJcEhZcwAAFxEAABcRAcom8z8AABkVSURBVHhe7Z0LkBzFeccXx4mxuJ2ZvUTBpEhkx4lhj1CIZ4INRHY5cfkV44Q8ygkOJjghlYIg85Bu944TD4FlLEsQCvKwDQZsEl4nnRFIcrCILYyxUUgEMkgCH8QkmCAhRO6x99B1vq+3R+rtnZmd3Z2Znbn9/6q+2p2Znp6e6f7+3f3N7GwOAAAAAAAAAAAAoNsQwyc4leFjL5laX9xSWV/cN7W+T8Rp0yPF29ShAQCdZGq4bzE55ajppHFbZbh4tioCAKATsPMn0eP7Gh1fFQUAkDQ85Pd0zISMxYenH6o4AICkmBzuO8/LKZO34hZVJABAUlDv+5SHQw5PDh+zJD7zFh0OQKpiAQDiRgX+ah1xpG+N2hwrfJy6Y5MhKAhAQrCzGQ44muRc3Cv2UFlX3D/xwHvOoJHCO+e7qcsAQGeo3vM/5HxJ35dnsaHjJn7rMV0mRZCmXMUV6rIAkAzs8DWNMaHhv47nNKRalvp189z4bgjHR9SlASBeTAHoVC/kMRWRVllXv64bjAOz6tIAEB9pEQCmbjRy0Ioe6+a/JT0dA11ImgSA8bkl2bU2OXzMEnVpAIietAmA/DHS+uIbepmkjRQfNyPo88F46sOBWL/RD8cE1KUBIHrSJgAMOcYSvUyuzfchcTUYWn9blIVCJQEgWtIoAAyXQy+Xa/P9ISE1Aqr5URYLotoMQLSkVQAYKs+wXjY2do75/qMh8wlJPB4NYiPNAqB6w5qgYDc4gzn6me9TH9BB0iwADM9/D5avAw8pdQIIAEiMtAsAIyPlNBKY70N/FwgASIwsCADTTZFwCABIjKwIQDcBAQCJAQFIHxAAkBgQgPQBAQCJAQFIHxAAkBgQgPQBAQCJEYUA8O05fly12nD5WXZYm2a8Ian4irGdrPoGITwmDNqiXQHgBmg+uw5L3EbxxyqgJdoRAH4sF86fDuN6wGgANE2rAuD3Ci9Y50yJAH46DMLTqgCoeWhNA4R13rg+VRUB0JhWBMCr969OBUgURvrWcB5Ztf+695jrfvCNX1vttS1t5ifCGAWA0LQiAJSu5nf67PxZe1HHkZceeURhWeFXrEHrVKfsnOuUrFV22XrQudreUSjZd6lkqacqBIfqgi1MHQIgaVEAam5Tpb3BLRxa2GOX7MWFfuuPnAGrn+zLdsn6N3L4/3EGbOEM2aKwwhGFqxzRu6ogSAweUbtmAqoD88Upw2oTAME0KwB8z19PX90nHUNO6tHt/OX5Y5xyz1l22f4sOfiN5OyPOCX7eXLq150yOfo15OjXVp3duZKcnwXANbWd0j+ssswE5pSMR2RqEwDBNCsAHvP/UbWpIzjLnBOsAesGcvi7yXG/Tz39q84gOTI5uOzVlUlnp/Xs5EFmCMBhuXtyP5P77dxb5Wcj43QdwPxnJQgACE3zAlD7X4LU2Dr6DzZ2v31p7xcL9b26h3OHMV0Aegfzv0mC8hiJy+Pys2R/l2yr+m7aVjr2E/T5SVmwBMEIALRMswJAaWrnmx1+TZc9YC8tXEdO6+HMrZguAE4p/3EpLJS/KzDS3GkEm/ud1vd+oSCskrVMFixBTFHmuwNqEwDBtCAARgCws39kST3uJYWV8QiAvcx+J48wSGQu5U9a/4zTbz1C35fK9Wxl+3Ps9FSO53pXOYKXZcEShOohVaIMMkQzApDGAGCcAmDilK17C2Xb8/qQ4z/Ye0OhUwJQI8pZuyULOkgzAsDPmutp0zDXbEkAOEbAAUE2I14QKAAl6/5Cv321WqyBHH9DJwSABVivEzY8CARC04wApC0AyHgKADm1nKtfXbUaJ+fvQ9VPctYKrZvQt+sCwM8P9Pb39rnGzweQfbnQX/gN3agMJ1FeWzkGkLQAIAAI2qIZAaDtqZtr1gkA9+oley8N14dp2+3k3P9MywfYyQu0jdaN05y9TPP3c5xB56N2ydpeGDq0f00MoGwvscvWy2T/Tel+QssTlGaMll8h+6luTr89xeVIXgAQAARt0KQApCoAyJgCULiSnHzA/t8FAwtO4O2LhnKHk/NudUcElGaz3JFw+p0zSRgm9ecDdAHgx4XzA/lfzy/Pv4c/SVT+lewf5DrNjhg44jhy/O90YgRA9YAAIGidsAKQ1icA60YA7MTs6CVrtUqSy1Mahx2be/p+61Ny5UW5t9H3LUoUDu0bFAMoW/cXyumKAVA9IAAIWiesAJgBQLY0/FOPpwDwHL9k7eOeW6ZZbv8qjQL+j4b+L/YO9VpyHU8BPJ4ObCAA9xVK9lVqsQbaJ3EBQAAQtE1YAUhjAJDxEgDpyNSzW2VrrUpGw337QVr+An9f9OeLDieH/T5PC+r20wSA0r+bnP5KZ8AalFa2niUB+A59L5PADEorWwN2Ob+CHH937+eTFQAEAEHbhBUA2pbKuaavANBwn5zxVZ6jczrq/U9xBpzj+Xu+lD9PBv70uwPufpoA2IP2yZTmYbKH1OdPyel/TMfcQGk2KXuY8v4W7buHnxhMVgAQAARt0oQApC4AyPgJAJuKBXwpJ3KHqeS5hZcteAf14E959f5yH3MKMJR7i9yfPu2ytY7yW0Vrqz8SYuPtQ7kFVI5NSU8BqB4QAATtEUYAvAKAaXkLbaAAsJOXnN2LhhYdrpLnfr5sf8Cv95f7tBgD4FFBBwQAAUDQHmEEIK0BQKbRCIAc8lpKdnAEYK+xHXLk75nR/4P76AJwUe5tv1BacJRrTjm/sVC2/+4XVx5xpLtu4RCNKMqHL6KRwZYkBQABQBAJYQQgrQFAxk8A5DsAyvlRdlBO1zPQc/aRZftdcp+Bnt8vDNpz5h0AuZ8mAM5gz5n0fReNFnbStp18J4GW99L3H/GytJL9HH3uounBWJIxAAQAQSSEEQBaXzPX5H3Upo7jKQD81B8N/+2B/FJOc9TQUQvsfns3Dd8vlzvR3N0p5b/lNQqoCQKSYFDP3l8YtJYXytZy2r6DRg/fplHAZYUBa5m0sn0FrStRup1J3gVIsyiDDBFSAFIZAGS8BEA6f7/1DL8iTKZZZv8BOzb10o/nVDzAKlu/6ww60/JZAH3fjMQAqB4QAATt00gAvAKAaQo21QkAB/eG7FlnIP9pmUDkDpOOe61MM0cjgffL9QR9X2eOAgIFIODXgLRv0gKQWlEGGaKRAKQ5AMiYAiB7/5L1PQ7g8XbnCud4WpbP+8ugYMm6Xe5I8HMB9oC93++3AD39PQspzceckvNR+cOhAftxEph7rFLhQ3I9WWF54SNUhk+SyGxL6rcACACCyGgkAGmfa9aNANiZS/ZOcsSv0babOTrvOnj14SDrVdr22Xwp/+Gecs8Zck4vA4b1AtBbtj9IeYyR44/RJwcAZ8imaP/9vCytbL+pts1yORISgNS9lwFklEYCQOtSGwBkyPnqg4A0r+fenp1Zd25pPEWQImHN0GhgPwnCm3Kd2q4LAL8PgH/vz6MI+Vmyvk3W8fcBIAAIIiOEAKR6rukpAI3MFYFWfgyUgjcCUT0gAAiiIUgA0h4AZFoSgAALFgD7nt6yc6VarKFQtr+ZoAAgAAiiIUgA0h4AZOIUgJ7+nmOdsrOGjrG2+pl/ntL80F3nGj8dSNOJFwuflzGAy2TBYsJLlBEABC0TJABZmGva/fbSuATAKfV8ovf6gvy/QP504wpynWFy2/W8r3OxLFhMIAAIIiVIAMxtvKw2pQbqca/o/ZJyQP6RjzGnb9ZqBIBfGVZ9FHi3/Dz0+O+uOhuwXuBbgfaAfaIsWEwgAAgiJUgAaNn4tdmxl6hNqaFQzr+3MGR9lYRgs3LGKX4WwP1PQGksDBzw06L9flYTAxjKvYV/SRjGjl569Nsp/c/J/WKE6gEBQBAdfgKQhQBgDX+Z+9neobcfzS/xoF74bOqNSzQ3v5OE4Um7zG/0tcbk7UH377z49qArCj63AdMI1QMCgCA6/ATA/MfZ6rZsBpsWDi18h1N2zrJL9vlkK0kgvuGU80+Qo++VU4YhcnweKdDIgef7Tsl6RO2aKrxEOS3vZQAZxU8A5vtc0/5b27Eus95dGCy8rzBgX0AjhjU0WtjoXGP/iITh6ypZqsjCXRmQMfwEwFzPy3IHH8TrrwtxwafF3PtOEnNnnhrezjhZiHM+JsS2HwqTuPINyu+NJSeLn3zwxPptHSgn56uDACCIHN8pQJMBQHH+n4qpG1eL8akpMV4hm5xsbJxuelpMbtwg5s46VYiRB1TTrxJXvlkpJ+erQ/WAACCIFi8BaCUAOHfa8dXGP3vAu7H7WaUixqixT/zHNnHgrFOEuPvOausn4so3K+XkfHWoHhAABNHiJQCtBADnfmuxGB+fkA16fHzc22ZmqMcj89gmnWDns+LA+08X4rZ/OugAceSblXJyvi4+TwAuUZsBaA0vAWhlrjl3+olifIwas58D0PqJnc+JiRdHqz2luZ32lU4w+mNx4HfOFGL4vqpjxZBvVsrJ+bogAAhiwUsAzHW8rJL7EugANNSd2LuXphH3i+k1N4jxPXuqw18z3dhY1Ql2PCMDZHHlm5Vycr4uCACCWPCcAtTNNauBwSACHYDWTbzyiph8/DExc2W/mHjheRn8qkun0o5PTIq5M05q7Fgt5puVcnK+LlQPqX4vA8goXgJAvcs+fV2YJwADHWBiQoxRg5/62lfF7F99Ri579oBsvP/+/WLurFMaO1aL+WalnJyvC9UDAoAgekwBqDxQ/Ht9mS3ME4CBDkDGQ9upW28SM5deLL/zcNcrXVOORdZKvlkpJ+fLtHJXBoBQeAjAxprlkHPNhj3g7AExc8lfi+nrrxHjb+wT43PkBBwVn52t3acZx2ox36yUk/NlEAAEsWEKwDQ5vL5MNqySBhLoAHNzYvIHT4jZC88X4y+/LKb+5W4Z7Z7YvUtMbv9PavBvHNrPcIA48s1KOTlfBgFAEBt1I4D1xVf05TABQMbXAaiX4yHvzNK/ETOfu0hMbntSRcO/KCqbHhaVzQ+LmYsvFBN791T3NRwgjnxbyo8slnI2yJehekAAEMSDhwBM1iyHnGvWOQAHuej7xEsviem1N4jZP/4EfX9RNu5xcoiJPXvE5JZHROWeu8XUP95SXa/2CXQsLd+pNa3l21I57229nO3ky1A9IAAI4sEUANPCBACZGgfgKPfYmJh86t9FZeNDYvYPf4++b6sGv3gbOwg/B39APTZbsz7Ascx8z/l4S/kmXs428kUAEMSKLgCVdUZDa2KuWeMAU1Pyvnfl7q+LmasGaZj7ULWRcwNvZEGOFVG+WSkn5+v1WDYCgCAydAGYHqltaGShAoBMjQNwQ6aejYNcE6Oj4Rs/W5Bj8fYI8s1KOTlfBABBrNRMAQwBCBsAZOocgIwffpmjxs/M8Pe56tIU9ZAzMzPy+yzfBgtwgDjyzUo5OV9zisbLvB6ASDAbmG7NzDVNB5igOW2Fvm/atEnceeed4oUXXpDf77rrLvHaa6+Jp59+Wtx2223i0Ucflek4vZcDBOXLebWSb9LlbCdfqoem3ssAQFMECUDYACDj5QBs/f394pZbbhHLly8Xg4OD4o477hCrV68WN954o7j55pvF7t27xSQHwrjxh3QsN99bb721pXyTLmer+SIACGLHFYB2AoCMXw94+eWXi6GhIdnbrVq1Sq4rl8ti5cqV8nPXrl1yOOzlAI3yXbFiRUv5Jl3OVvOdTy9mBSnFFYB2AoCMXw+4dOlSsWPHDtnL8ffbb79drF27VtrmzZvFAb4V5jZ+wwHiyjcr5awgAAji5uAUwBSAJt83V30jDg1llQO4tnXrVrGfGjQ7wIYNG+R8mOfA27dvFy/xQzLTxs9ief833yQHOLnqWDHkm5VymtMzXuZjARAZZiNzrdm5pt878TjuPcHr6btLhYa8s3NzYoo+x7S00rhHpJ5z7vTFVceKId+slJPqoen3MgDQFH4C0OxcU3zmU2LqptXVF13IBk89WbPG+9H+/Igvv2I7rnwzU06jThAABJHDAmAGAMlG1ebQiNf3CvEXfyYOvHcxDV9PJTutBTtVHKC5tLjgXCH27as6Vgz5ZqWcRp0gAAiiR44A2gwAguhBABAkgqcA4A8nOo45NeNltQmA6DAbGhvmmp2He3y9ThAABLEwvb64Xm9o1caGuWanIQFo+sWsADRNZV3xu3pDI9unNoEOgScAQWLQFGCH0dieVZtAh0AAECTG9Prj7tIb2/RI31fUJtAheL6v1wkZ7sqAeEBjSx9cB3qd8IhAbQIgWji4VNPY1hf3Yb7ZOfjaIwAIEsPrN+dT64tb1GaQIKouanp/NggyiBXznjObXDfSt4anCLD4ja+1Vz2QYUoG4sXrthMsHUa9/xJVTQDEBzW2uqEnrOOG3h8kQ3X+Wdzi0QhhHbHiFrz/HySO128DYAnbSN8aOD/oGPJWVPVpNJoW8KggO8b/bqybV5p0Wt+wDAYO9y1W1QAAaAavW5q4hQZAlwABAKCLgQAA0MVAAADoYiAAAHQxEAAAuhgIAABdDAQAgC4GAgBAFwMBAKCLgQAA0MVAAADoYiAAAHQxEAAAuhgIAABdDAQAgC4GAgBAFzN334mLIAAAdBHc6/OrtPid+mRvmAKgbJjfs6d2AQDMB9SQP/TrzFkkeB+1OwAgy6iXaXo6e4CNqt0BAFnF/FPTZmxyuO88lQ0AIIu02PtLo6nAPpUNACBreN3uk4LA/3FoWHWkUC8WuDsAQEYh512iOzP36EHBPSUYo/o+nIfaDABIM/W9uvzXooPOzD28SuoLpau9WzDSt0bPEyMCAFKE7LWr/5m/r8Zxva3hv+g28Z+Hw7hVCEAHkb2yMWRvYFEKgJxScBnUrgCApODeN2Svr1ukAsCGOwUAdAD5D7keDtnAIhcANi6L2h0AEDct9v5ssQgAlwXxAAASQs39ax1xpG8NO2EjU1kE4rWfbp6jD8QCAEgG8/Ye9cBPqU2JQcfF8wIg+/ATcFkzcrgR3fk68RNeOm7N8wKVB4o3eZU17aZOB3QreiPOjI3ULXdAAGofG66s08qTIVOnA7oVr0aReoMARGbqdEC34tUoUm8QgMhMnQ7oVrwaReoNAhCZqdMB3Qrfw86e9VVqGnIKBGByXXHcu6zpNnU6AGQHj/vwDR/wiZq6EQAi6gAkAztbjfMl3JPxQz98TL0M+JkwAAnBzqY7Hxs55FPytd/Dx14Sp8ljGM7PpooGAIgbfhyXnK6ZnwHHbYlPQQDoasxpQKdMjgbwOwAAkoeH/V5Omah14A4EAEDRys93ozDu+TkmoIoBAOgUPB2o3hosbuFRQZzGx5DHwrAfAAAAAAAAAAAAAAAAAAAAAAAASBtvJbuJjH/Mw7aNbAFZmuEyrybLSnlBzJxB5jZg08bIFpIBb1xHytL1OpzsJTLUL5CcT6Y3Yt3iaiCu6EyRncYrMojuSFn6NR9GAKAGVwCSdMb5JgD4bz+QWcIKAPccF5I9Scbp2Z4lu5TM5JfJ9Lkx5+2mM4fNrnEvyscYUct67+S1Xl93Ltl16rs+auE0vP51Mt7G9ijZcWQ6nE4vL59X0Cu6/EZNuhCY14CNj63nG9X5/hKZu43L8CEyt570a88EHTPoGjTaznCaRtc76PjNnDPXcZgygQaEEQC9IrxMb/jvItMbgGtu/nEIgG5u49B7aNP0c22UjxeNBMDvGrj2J2RMVOerC4CfBR2z0TVotJ1p5XrHcc5B9QY8aEYAvkLmvruOezi3wvWKdB2c83PVmNNuJHPz95sCtNM4WEDc9IxeDvcYXA53H3ferjur21Nyum+SBTUkvymAXi7z2G56L8dq53z9tunn5p6vV96NrkGYaxT2ekd1zq3WGzDw683Y3Erzw610t8LCBsaiFgBT9YPm5+75uvvoDYkbT9iXc/odQ8/P79jueUd1vn75MGYdeaVtdA0abW/mekd1zq3WGzAIKwBcGTwH02MArnk1JLMh6EQtAKbY6OXwM/3YrpO45hUnMPFr9O65sbnDbhdzW1Tn65cPE0YAmEbXIGh7M9c7qnNmWqk3YGD2Sl7oFeFlboVlSQD0HoXz4sCZvo/Z45jMNwHg9UHXIGh7M9c76PjNnDPTqMwgBGEEQG+4emM3G5feELwqzCVuAQgakjaCGxTv12jfTk4B4hAAnUbXwNzezPWO6pxNwtYbMGhWAPh2DKM3dK8K0/Pj4My9ZG6PqOfnBnBc3AarO4k+1AvTOMxy6LeGuCx868jdh8/Dbzhr9uA6fo1ePzb3Ru418LpeTNTnq+fNhBGARteg0XY9z0bXm4ninBuVCYQkjADojd3L9EanO7dpbsV45edWsN/+j6nPMI2D0RuEl7n7+KVrNJQM6vWCroF5naM4X32bXhdMWAEIugZhrlHY681Ecc6t1hswCCMADCv5FjL3Qm8n4weD+LvZ6Lhy9LReDwxxI9ArUHcifV7H5eJRh9towjQOF7f30Y/DZeH89PLysp4mTDCp0bCXj823Pt082e4g88q33fNtVwCYRtcgzDUKe72ZKOo4TJkAAAAAAAAAAAAAAAAAAAAAAAAAAAAAAAAAAAAAAAAAAAAAAAAAAAAAAAAAAAAAACCXy+X+Hy7XBS0QbMsnAAAAAElFTkSuQmCC;" vertex="1" parent="1">
          <mxGeometry x="626.39" y="521.68" width="126.47" height="98.32" as="geometry" />
        </mxCell>
      </root>
    </mxGraphModel>
  </diagram>
</mxfile>
